<svg xmlns="http://www.w3.org/2000/svg" width="971" height="363" viewBox="0 0 971 363" version="1"><path fill="#e8e8e8" d="M443 320c39 0 63-18 75-58l11-36c11-40-2-58-41-58-40 0-64 19-75 58l-11 36c-11 40 2 58 41 58zm9-31c-18 0-20-11-14-29l9-32c5-19 13-29 32-29 18 0 19 10 14 29l-9 32c-6 18-14 29-32 29zm372 28h35l27-93c5-19 18-25 31-25 15 0 21 7 15 27l-27 91h35l26-92c14-45-7-58-31-58-13 0-27 5-40 16l3-15h-30l-44 149zm-54-45c-3 10-11 16-28 16-14 0-22-5-15-29l1-4h81l8-29c12-40-1-58-41-58-39 0-63 21-74 58l-10 34c-12 40 2 58 41 58s62-15 71-46h-34zm-1-74c20 0 20 10 15 29h-48c6-18 12-29 33-29zm-194-30l-57 195h35l16-57c3 9 15 13 27 13 33 0 56-21 66-56l11-38c12-42-3-58-32-58-17 0-31 7-40 17l2-16h-28zm22 119c-14 0-20-7-15-25l10-34c5-17 15-30 32-30 14 0 20 7 14 29l-10 35c-5 18-16 25-31 25zM257 1c-12 0-21 12-21 21 0 8 1 9 4 13l-16 51H102c-17 0-38 0-43 27L3 310s-16 36 31 36h271c17 0 37 0 42-27l57-200 2-11c0-3 0-6-2-9-4-7-13-13-32-13H249l14-45a20 20 0 0 0 14-20c1-10-9-21-20-21zm50 112c39 0 56 11 56 37l-7 26h-34c6-19 4-31-24-31-27 0-35 12-40 31l-23 79c-5 20-4 31 23 31 26 0 36-11 42-31h34l-5 21c-15 29-40 42-80 42-49 0-63-19-51-61l23-83c13-43 37-61 86-61zm-216 0h51c50 0 67 18 55 62l-3 10c-8 30-24 47-51 55l23 78h-43l-20-72H90l-21 72H32l59-205zm26 34l-18 65h15c27 0 37-9 42-29l2-7c6-19 4-29-25-29h-16z"/></svg>