<?xml version="1.0" standalone="no"?>
<!DOCTYPE svg PUBLIC "-//W3C//DTD SVG 20010904//EN"
 "http://www.w3.org/TR/2001/REC-SVG-20010904/DTD/svg10.dtd">
<svg version="1.0" xmlns="http://www.w3.org/2000/svg"
 width="700.000000pt" height="700.000000pt" viewBox="0 0 700.000000 700.000000"
 preserveAspectRatio="xMidYMid meet">
<metadata>
Created by potrace 1.11, written by Peter Selinger 2001-2013
</metadata>
<g transform="translate(0.000000,700.000000) scale(0.100000,-0.100000)"
fill="#000000" stroke="none">
<path d="M786 6984 c-138 -27 -251 -72 -361 -147 -192 -129 -344 -342 -394
-553 -6 -27 -15 -60 -19 -74 -11 -40 -14 -3980 -3 -3980 6 0 14 6 18 13 7 11
33 33 103 91 55 44 182 121 270 163 52 24 102 48 110 52 8 4 59 20 112 37 l96
29 1 1655 c0 910 3 1669 6 1685 22 115 77 200 171 261 63 40 134 61 243 68
142 11 245 75 305 191 94 184 23 396 -164 488 l-65 32 -180 1 c-115 1 -205 -3
-249 -12z"/>
<path d="M2705 6975 c-254 -59 -364 -338 -218 -553 63 -92 152 -141 287 -157
32 -4 68 -8 80 -10 11 -2 46 -6 77 -10 31 -3 65 -7 75 -9 34 -7 198 -38 224
-43 141 -26 445 -119 630 -192 175 -70 452 -210 588 -297 555 -355 947 -752
1282 -1299 50 -82 196 -365 229 -445 13 -30 29 -68 36 -85 72 -165 165 -473
210 -695 7 -34 36 -213 40 -243 2 -17 6 -48 9 -67 3 -19 8 -66 11 -105 13
-137 92 -253 213 -311 49 -24 69 -28 147 -28 76 0 99 4 147 26 74 34 144 106
187 190 33 66 33 69 26 155 -4 48 -8 90 -10 93 -1 3 -6 38 -9 79 -4 40 -11 94
-16 120 -4 25 -11 66 -15 91 -33 236 -139 619 -250 905 -167 427 -430 882
-694 1201 -14 17 -35 42 -45 55 -101 126 -373 406 -511 525 -413 357 -858 627
-1352 820 -108 42 -312 112 -343 119 -8 2 -55 15 -105 29 -137 40 -405 97
-545 116 -47 6 -96 13 -110 15 -14 2 -57 7 -96 10 -39 3 -84 7 -100 9 -16 2
-51 -2 -79 -9z"/>
<path d="M2656 4495 c-195 -80 -283 -291 -198 -476 55 -121 135 -177 327 -228
94 -25 245 -85 297 -118 21 -13 40 -23 43 -23 3 0 24 -12 48 -27 215 -139 399
-342 514 -568 46 -90 95 -226 118 -330 42 -181 171 -295 342 -301 149 -5 275
70 339 204 20 43 25 67 25 135 0 72 -4 106 -25 206 -12 55 -61 193 -103 291
-169 389 -439 712 -793 945 -173 114 -415 224 -595 271 -5 1 -44 12 -85 23
-102 28 -180 27 -254 -4z"/>
<path d="M925 2155 c-473 -80 -828 -430 -908 -895 -15 -82 -17 -295 -4 -350
30 -129 40 -166 45 -175 4 -5 7 -15 8 -21 5 -31 79 -174 125 -240 81 -116 205
-236 324 -312 93 -59 275 -127 404 -150 54 -10 296 -8 346 3 131 28 176 43
280 92 112 54 176 95 240 155 22 21 43 38 46 38 10 0 135 153 170 210 195 310
220 700 66 1025 -62 130 -113 205 -210 304 -160 164 -350 266 -579 312 -77 15
-272 18 -353 4z m280 -637 c185 -48 327 -231 328 -423 0 -83 -5 -115 -29 -175
-68 -171 -216 -277 -399 -286 -263 -13 -478 199 -470 462 9 291 286 497 570
422z"/>
<path d="M6570 1479 c-155 -29 -271 -162 -285 -326 -13 -152 -23 -188 -73
-263 -60 -89 -139 -139 -263 -166 -13 -3 -769 -5 -1681 -5 l-1656 0 -12 -52
c-44 -187 -197 -469 -332 -616 -21 -22 -38 -43 -38 -46 0 -3 881 -5 1958 -5
1918 1 1959 1 2047 21 219 48 384 145 531 310 88 100 171 254 200 374 23 95
32 179 32 318 0 181 -8 223 -60 302 -79 119 -225 180 -368 154z"/>
</g>
</svg>
