<svg version="1.1" id="Layer_1" xmlns="http://www.w3.org/2000/svg" x="0" y="0" viewBox="0 0 450 450" style="enable-background:new 0 0 450 450" xml:space="preserve"><style>.st0{fill:#eaeff4}</style><path class="st0" d="m379.7 369.3 5.7 2.4c.8.4 1.3-.1 1.6-.8l2-4.6c.9-2 1.6-4 2.6-5.8 1.4-2.9 3.4-3.6 6.4-2.4 2.8 1.3 5.6 2.6 8.5 3.7 2.6 1 3.3 3 3 5.5l-.8 9c0 .7.2 1.5 1 1.8l1.2.5c2.7 1.2 3.6 3.4 2.4 6.2l-5 11.5-.6 1 .7 1.7c.7 1.2.6 2.3.1 3.5l-3.1 7.2c-1 2.2-2.9 3-5 2-1.7-.6-3.2-1.5-4.6-2.2-1.5 1.3-2.7 2.3-4 3.2-2.9 2-7.6 1.8-10.4-.5a9 9 0 0 1-3.6-8.4c.1-1.2-.3-1.8-1.5-2.4l-20-8.6c-1.6-.7-1.7-.6-3 .7-3.4 3.3-7.8 4-11.3 2a9.5 9.5 0 0 1-5-9.2c0-1.8 0-1.8-1.5-2.5l-3.9-1.8c-1.5-.8-2.2-2.4-1.6-4 1.2-3 2.4-5.8 3.8-8.7.7-1.7 2.4-2.2 4.1-1.7l1.2.4c1.7.7 2 .6 2.7-1l2-4.7c.3-.6.3-1.2.4-1.7l-2.3-2c-1-.8-1-2-1-3 .2-2.3.6-4.5.9-6.7l1-8.5.6-3.8c.6-2.8 3.2-4.8 6.4-3.6l1.9.8 29 12.5c1 .5 2.2.9 3.5 1.3 2.1-2.6 4.3-5 6.3-7.6 1.2-1.6 3.3-2.5 5.4-1.6 4.4 2 8.9 4 13.4 5.8a4.8 4.8 0 0 1 2.7 6.2c-1 2.4-4 3.5-6.5 2.4l-7.5-3.2-1.7-.6c-1.8 1-2.7 3-4 4.4l-5.4 6.7-5 6.3-2.2 2.9zm15.4-23h1.7l3 1.1c2 1 4.2 1.9 6.4 2.8 1.5.6 2.7.2 3.1-1 .6-1.5.1-2.1-1.5-2.8-2.4-1-4.9-2-7.3-3.2l-5.3-2.3c-.8-.3-1.5-.4-2.1.2l-2.3 2.6c-1.4 1.8-2.8 3.7-4.4 5.4-.6.8-1.6 1.3-2.7 1-1.3-.3-2.6-.6-3.8-1.1l-29.3-12.7-1.7-.7c-1.6-.5-2.7.2-3 1.9-.2 2.6-.4 5.1-.8 7.7l-1.4 10.3a2 2 0 0 0 1 2c2.5 1.5 5 3 7.7 4.4l1.4.8 8.8 5.3 5.1 3 3.9 2c.7.3 1.3.3 1.9-.3a49 49 0 0 0 2-2.3l7-9 2.4-3 5.1-6.4 3-3.7c.5-.7 1.3-1.3 2.1-2zm-48 15.8-2.9 6.7c-.3.8 0 1.4.7 1.7l1.2.5 56 24.2c3.3 1.5 3.5 1.4 4.7-2 .4-1.2.3-1.7-.9-2.3l-2.6-1.3c-1.1-.7-1.4-1.6-1-2.8.2-.8.5-1.5.9-2.3 1-2.2 2-2.6 4.2-1.7l3.3 1.3.4-1.3c0-1.5-1.2-1.9-2.3-2.3-3-1-2.9-2.3-2.7-4.7l.9-9.1c0-1.2-.4-1.9-1.5-2.4l-8-3.4c-2.3-1-2.7-.9-3.7 1.4l-6 14-.8 1.6c-.7 1.1-1.2 1.2-2.7.3.1-.8.3-1.6.6-2.3.2-.8 0-1.3-.7-1.6l-6.2-2.7c-.9 1-1.5 1.9-2.3 2.6-.6.6-1.4 1-2.1 1.5-1.3.7-2.5 0-3.5-.5-2.5-1.3-4.9-2.8-7.3-4.2l-9.6-5.3-.8-.6-5.3-3zm49.5 45.3 4.2 1.7c1.4.6 1.8.4 2.4-1l2.5-5.7c.9-2 .8-2.3-1.3-3.2l-65.9-28.5-1.8-.6-4.2 9.4 5.9 2.6c3-4.2 8.1-5.2 11.8-3.5a9.8 9.8 0 0 1 5.3 10.7l1.2.7c7 3 14 6 21 9.2 1.1.4 1.8.1 2.5-.7a8.5 8.5 0 0 1 8.6-3c3.4.8 6 2.8 7 6.3.5 1.6.5 3.4.8 5.6zm-15.7-.2a6.5 6.5 0 0 0 8.5 3.7c4.2-1.8 5.3-5 3.8-8.6-1.5-3.9-4.9-5.3-8.7-3.7-3.6 1.5-5 4.7-3.6 8.6zm-28.4-22.5c-1.6-3.7-4.7-5.1-8.5-3.8a6.7 6.7 0 0 0-3.9 8.6 6.7 6.7 0 0 0 8.7 3.8c3.1-1 5.2-5.5 3.7-8.6zm53.3.3-.9 2.2 3 1.6 1-2.4-3.1-1.4z"/><path class="st0" d="M349.2 346.6c1.4 0 2 .6 2 1.7l-.6 6c0 .6-.3 1-.3 1.5-2.4-.3-2.4-.3-2.3-2.2 0-1.5.1-3.1.4-4.6.1-.9.5-1.7.8-2.4zM352.2 338.8c-.2 1.3-.2 2.6-.5 3.8-.1.3-1 .6-1.4.6-.3 0-1-.6-1-.9l.6-3.6c0-.3.7-.6 1-.7.4 0 .8.4 1.3.8zM396.1 363.8c.9.1 1.6.1 2.3.4l4 1.7c1 .4 1.6 1 1.5 2.4l-.7 9c0 .8-.5 1.3-1.4 1.3h-.4a60 60 0 0 1-9.7-4.4c1.3-3.5 2.9-6.8 4.4-10.4zm4.5 11.2.6-6.3-3.4-1.6-2.5 5.9c1.7.7 3.3 1.8 5.3 2zM378.8 391.2c1.8.7 2 1.4 1 3.4-.7 1.7-1.3 1.9-2.9 1 0-1.7.6-3.1 2-4.4zM364.3 390l1.4-3.3c.3-.7.8-1 1.5-.6.6.2 1.1.7.9 1.4-.4 1-.7 2-1.3 2.8-.5.9-1 .8-2.5-.3zM337.8 378.6c-.9.3-1.9-.5-1.6-1.4.3-1 .7-2 1.3-3 .2-.3 1-.4 1.4-.3.3 0 .9.7.8 1-.4 1.2-1 2.3-1.5 3.5l-.4.2zM362.3 384.2l-1.8 4c-2.2-.2-2.5-.7-2-2.3l.6-1.3c.8-1.5 1-1.6 3.2-.4zM372.3 388.6c1.4 0 2 .6 2 1.5-.2 1.2-.6 2.4-1.7 3.2-.6.4-.7.4-2.1-.5l1.8-4.2zM386.2 402.3c1.2-.5 2.8.3 3.2 1.6.5 1.2-.1 2.7-1.3 3.2-1.6.7-2.8.2-3.4-1.4-.6-1.6-.1-2.8 1.5-3.4zM347.3 389.5c-1.4.7-2.6.2-3.3-1.3-.5-1.2.1-2.9 1.4-3.4 1-.5 3 .1 3.4 1.2.5 1.4-.1 3-1.5 3.5zM140.7 428.4c-.2 1-.2 2-.6 2.8l-8.8 15.2c-1 1.8-2.7 2.2-4.5 1.2l-8.4-4.9c-2-1.2-2.3-2.3-1.1-4.4L126 423c1.2-2 2.6-2.3 4.5-1.2a388 388 0 0 1 8.4 4.8c.6.4 1.1 1 1.8 1.7zM129 424l-9.3 16.2c2.3 1.8 7.7 4.7 9.3 4.8l8.3-14.4v-.1c.6-1 .4-1.6-.5-2l-4.4-2.7-3.4-1.8zM147.3 444.5c-.8 1.5-1.2 1.8-2.3 1.2-1-.4-2-.7-2.3-1.8 0-.4-.2-1 0-1.1.3-.3.8-.5 1.2-.4 1.3.3 2.5 1 3.4 2.1zM150.8 438.1c-.9 2.3-1.3 2.5-2.6 1.7-.8-.4-1.9-.6-2.1-1.7-.1-.4-.1-1 .1-1.3.2-.3.9-.4 1.3-.2l3.3 1.5zM161.5 23.3c-.8.2-3.5-1.5-3.6-2.2-.2-.8.6-1.8 1.4-1.5 1 .3 2 .9 2.8 1.6.8.6.3 2-.6 2.1zM139.6 7.8c-1-.5-2.1-1-3-1.7-.4-.3-.5-1-.8-1.5.6-.3 1.3-.9 1.8-.7 1 .3 1.9.8 2.6 1.5.9.9.1 1.6-.6 2.4zM136.3 13.8l-3-1.7c-.8-.4-1-1.2-.6-1.9s1.2-.8 2-.3l2.8 1.7-1.3 2.2zM147.9 27.8c.3 1.2-.8 3-2 3.3-1 .2-3-1-3.2-2-.2-1.2 1-3 2-3.3 1.3-.2 3 .8 3.2 2zM106.4 8.2c-2.2-.3-3.2-1-3.3-2.4 0-1.3.9-2.6 2-2.8 1-.3 2.4.4 3 1.5.6 1.2 0 2.3-1.7 3.7zM126.2 66.8c-.3 1.9-.7 2.2-2 2-.6 0-1-.2-1.5-.4L105.5 64l-2.4-.5c-.5 3.3-.3 6.4-.4 9.6 2.6 1 5 2.4 7 4.3a31.3 31.3 0 0 1 8.3 28.3c-1 4-3.5 7-7.8 8-1.8.4-3.6.5-5.4 0l-3.4-.8-2.3 8.7c2.6.8 5.3 1.8 8 2.3a9 9 0 0 0 5.6-1l2.3-1.1c1.7 1.4 1.7 1.8 0 2.8a12 12 0 0 1-9.3 1.7l-38.4-9.8c-.4 0-.8-.3-1.5-.5l.6-2.4 14.9 3.8 2.1-9c-.2-.2-.7-.3-1.2-.5a13.2 13.2 0 0 1-9.1-9.6c-.7-2.5-.6-5 0-7.5l2.2-8.2c.4-1.7.3-1.8-1.3-2.5l-5.4-2.8-3.6-2c-2-.8-3.8-1.8-5.7-2.7-.8-.3-1.5-.2-2.3.2-4.6 2-10.8 0-13-4.5-2.8-5.8.5-11.4 5.9-13 4.2-1.3 9.8.7 11.6 5.4.6 1.6 1.7 2.3 3.3 2.7 8.4 2 16.9 4.3 25.3 6.5l2 .4c1.5-1.5 3.9-6 4.4-8.5l-2.1-.6-16.2-4.1c-.6-.2-1.3-.3-1.7-.6-.4-.4-.8-1-.7-1.6 0-.6.6-1 1.4-.8l1.8.4 16.6 4.3c.6.1 1.2.5 2 .8l1.8-2.6c.6-.7 1.2-1.1 2.1-1 1 .3 1.4.9 1.5 1.8l.4 2.9 2 .6 18 4.6 2.8.8zm-10.1 32.8-.5-5c-.6-3.6-1.8-7-3.6-10.1-.5-.8-1-1.2-2-1.4l-7.1-1.8-4.5-1.1c-2 1.8-6.4 11.2-6.3 13.4l2.3.7 12.2 3.1c1.8.5 2 1 1.2 2.9l-2.4-.4A1238.5 1238.5 0 0 1 91.3 96c-2-.9-2.8-3.3-1.8-5.2l4.9-10.1c1-2.1 3.1-3.9 5.8-3 1.8.7 3.7 1 5.6 1.5l1.9.4a11 11 0 0 0-5.8-4c-1.1-.3-2-.9-2-2l.1-4.4.4-6-.4-.6c-.5.4-1 .7-1.2 1.1l-3.7 7.5c-1 2.1-1.2 2.2-3.4 1.7l-16.2-4.2L55 63.6c-2-.5-2.4-.3-2.8 1.7 1 2 3.3 2 5 3.2 1.5 1 3.3 1.7 5 2.5l4.2 2.2 5 2.6 7.2 3.7-.5 2.6c-.8 3.1-1.7 6.2-2.3 9.2-.4 1.8-.7 3.6-.4 5.3.8 4.5 3.5 7.6 7.9 8.8 7.3 2.1 14.7 4 22.1 5.7 5.3 1.3 8.9-1.5 10.1-6.4.4-1.5 0-2.1-1.5-2.6l-2.6-.9c0-2 .4-2.3 2.2-2l2.4.4zm-31.7 18.6 10.5 2.7c1 .3 1.4-.4 1.6-1.2l1.5-6.2c.4-1.3.2-1.5-1.1-1.8l-8.4-2.2-1.8-.3-2.3 9zM58.7 61.7c-.4-.9-.5-1.4-.8-1.7-1.5-1.8-3.7-2.3-5.9-2.4-3.5-.1-6.9 4-6.3 7 .7 4 3.4 6 7 6.4.8 0 1.4 0 1.7-.9-1.1-.7-2.2-1.2-3.1-2-1.8-1.4-2.1-3.3-1.1-5.3.7-1.5 2.5-2.4 4.5-2l4 .9z"/><path class="st0" d="M108.2 108.7c-.5.2-1 .1-1.3-.5-.6-1-.2-3.4.8-4.1.6-.4 1.5-.3 1.8.2.6 1-.3 3.8-1.3 4.4zM101.8 107c-.8.4-1.6 0-1.5-.9 0-1.2.4-2.4.8-3.5.4-.8 1.7-.5 2 .4.6 1-.3 3.4-1.3 4zM87.8 98.7l2.5.6c-.3 3.3-.6 3.8-2.3 4.5-2-1.6 0-3.3-.2-5.1zM94.7 100.6c2 0 2.4.3 2 2.1-.3 1.2-.4 2.6-2.1 2.8-1.2-1.3-1.2-2 .1-5zM83.8 97.8c-.7 1.5 0 3.7-2.6 4.4-.2-.6-.7-1.1-.7-1.6.1-1 .3-2.1.9-3 .6-1 1.5-.5 2.4.2zM36.3 214.9 31 203c-.8-1.6-1.4-3.3-2.3-4.8-1.7-3.2 0-6.5 3-7.9l7.8-3.5 9.2-4.2c1.5-.6 3-1 4.6-.4 1.7.6 2.8 1.6 3.6 3.2l8 15.1c0 .3.2.5.5 1 .9-.3 1.8-.5 2.6-.9 4.8-2 9.6-4.3 14.3-6.4.8-.3 1.5-.7 2.3-.9 1.8-.5 3.1 0 4.1 1.5L90 197l6 13.4.6 1.3c.5.7 1.2.7 1.9.4.6-.4 1-.9.7-1.7l-.6-1.3-7-15.4-.7-1.8c-.4-1.1-.2-1.7.9-2.4l1-.5c3-1.3 3-1.2 4.5 1.5 1.8 3.6 3.5 7.2 5.7 10.5 3 4.7 6.2 9.2 11 12.3 2.3 1.5 4.8 2.8 7.8 2.3l1.8.2 2.3 5.3c-1 .6-1.8 1.3-2.8 1.8-4.2 2-8.3 3.8-12.5 5.6-.8.4-1.8.5-2.8.7l-2.2-4.6c-.4-1-.8-2-1.4-3-.2-.4-1-.8-1.3-.7-1.3.5-2.6.8-3.4 2.3-.6 1.2-1.8 2-2.9 3.2-.1.9-.2 2.1-.5 3.4-.7 3-2.3 5.6-5.1 7.2l-5 2.7L60.6 251c-2.2 1-4.6 1.9-7.1 1.8-3.4 0-6.1-1.4-8.5-3.8a14.1 14.1 0 0 1-2.8-4.4c-2.6-5.8-5.1-11.6-7.9-17.3-2-4-1.7-7.8 1-11.3l.9-1.2zm30.9-10.6c.8 1.7 1.4 3.5 3.5 3.9.7.1 1 .8 1 1.6-.3.6-.8.9-1.5.8a4.6 4.6 0 0 1-3.4-1.6c-1-1.3-2-2.7-2.8-4.1l-8.9-17.2c-2-3.7-3.3-3.3-5.9-2.2l-15.6 7.1c-.7.3-1.5.8-2.1 1.3-.8.5-1 1.4-.7 2.3l.7 1.7 7.3 16.2c.6 1.4.6 2.2-.6 3-2.4 1.8-3 5.9-1.7 8.6 1.6 3.2 3 6.6 4.5 10l1 1.6c1.5-2.5 2.3-5.4 5.4-6.2 1 1.7 1 1.7-.2 2.9-4 4.2-4 11.2 1.6 14.8 3 2 6.1 1.8 9.4.3l29.5-13.4c1-.5 2.3-1 3.2-1.8 4-4 4-11.1-1.3-14.6-2.9-1.9-5.9-2.2-9.1-.7l-9.2 4.1c-.7.3-1.4.5-2.2.6-.3 0-1-.3-1-.6-.2-.4-.2-1 0-1.3.5-.5 1.1-.9 1.7-1.2 3-1.4 6.1-2.8 9.2-4 1.5-.7 3-1.2 4.6-1.3a12 12 0 0 1 11.4 6.4l.9 1.8c1.3-.9 1.7-1.5 1.4-2.7l-.7-2-9.3-20.4-1.1-2.2c-1.8.3-17.2 7.1-19 8.5zm27.4-12.6-.6.3c.5 1.9 1.5 3.6 2.3 5.4l2.6 5.9 2.5 5.6 2.6 5.6 2.6 5.8 2.5 5.5c3.2-.9 12-5 13.2-6.1-.5-1-.5-1.1-1.3-1.2-4 0-7.3-1.7-10.3-4.2a28.8 28.8 0 0 1-5.8-6c-1.3-2-3-3.8-4.3-6-2-3.2-3.7-6.6-5.5-10l-.5-.6zm7.7 26-.8-2.1c-.5-1-1-1.2-2-.7-.8.3-1.1.9-.7 1.8.2.4.2.8.5 1 .3.5.8 1 1.2.9.6 0 1-.5 1.8-.8z"/><path class="st0" d="m51.8 188.8 1.8 2 6.4 11.7.6 1.3c.3.8.1 1.4-.6 1.8l-1 .4-15.2 6.9c-2 .8-2.3.7-3.2-1.2-2-4.3-4-8.6-5.8-13-.7-1.4-.4-2.2.9-2.8 5-2.4 10.2-4.6 15.4-7h.7zm6 15.2-1.2-2.2c-1-2-2.2-3.8-3.3-5.7l-1.1-2.2c-1-1.7-1.4-1.9-3.1-1.1l-9.8 4.4c-1.9.8-2 1-1 3l3.9 8.6 1 1.7 14.5-6.5zM82.5 224.8c.6-1.5 2-2.2 3.6-1.6 1.7.6 2.3 2 1.7 3.6-.6 1.7-2 2.3-3.7 1.6-1.5-.6-2.2-2-1.6-3.6zM66.6 236.4c-.6 1.7-2 2.3-3.6 1.7-1.7-.7-2.3-2.1-1.7-3.8a2.8 2.8 0 0 1 3.7-1.5c1.6.6 2.2 2 1.6 3.6zM54.4 237.6c1.2.4 2.1 2.3 1.7 3.5-.7 1.8-2.1 2.4-3.8 1.7-1-.4-2-2.4-1.7-3.4.5-1.7 2.1-2.4 3.8-1.8zM77.2 231.6c-.7 1.7-2 2.3-3.8 1.6-1.1-.4-2-2.4-1.5-3.6.8-1.7 2.3-2.3 4-1.5 1 .5 1.8 2.4 1.3 3.5zM65.3 224.8a10.9 10.9 0 0 1-5.8 3c-.4 0-1-.2-1.4-.5-.6-.6-.1-1.3.3-1.6l5.4-2.4c.9-.3 1.3.4 1.5 1.5zM55 227.8c.5.4.8.9.3 1.5-.9 1.1-2 1.8-3.5 1.8-.9 0-1.4-1-1-1.7.6-1.2 3-2.1 4.2-1.6zM76.4 209.7l-2.3.9-1.4-3c-.4-.8-.1-1.5.6-1.8.7-.4 1.4-.1 1.8.7l1.3 3.2zM86.4 204.8l-1.4-3c-.3-.6-.2-1.3.5-1.5.4-.2 1.3-.1 1.4.2.7.9 1.3 2 1.5 3 .1 1-.8 1.4-2 1.3zM80.2 207.6c-.4-1.6-2.4-2.8-.7-5 .6.3 1.3.5 1.6 1 .6.9 1 2 1.1 3 0 .7-.8 1-2 1zM345.8 158.7c-3 4-8.2 4.5-11.2 3.1a9.7 9.7 0 0 1-5.4-11.1l-29-14.7c-3.4 3.7-8.2 4.3-12 2.2a9.7 9.7 0 0 1-4.4-11l-2.7-1.5c-3-1.6-3.8-3.8-2.3-6.7l6.8-13.4a6.4 6.4 0 0 1 6-3.8c1.2 0 2.5.4 3.6 1 2 1.2 3.2.6 4.8-.6 2.4-1.9 4.8-3.7 7.4-5.3 3.5-2.2 7.3-2.3 11-.5l18.5 9.4c3.5 1.8 5.4 4.6 6.2 8.2l1.5 8.4c.5 2.8 1.6 5.3 3.4 7.3 1.4 1.4 3.2 2.4 4.8 3.5 2.3 1.6 4.7 3 6.8 4.6 2.4 2 3.4 5 2 8-2 4.4-4.3 8.6-6.4 12.8-1.1 2.1-3.6 2.9-5.8 1.8l-3.6-1.7zm-14.3-37.4c-.8 1.9-1.3 2.1-2.6 1.6l-1.5-.7-29.4-15-4.6-2.3c-2.1-1-4.2-.3-5.3 1.7l-4.9 9.5c-.4.9-.2 1.5.6 2l5.3 2.6c.6.2 1.4.3 2 .2a9.3 9.3 0 0 1 10 5 5 5 0 0 0 2.4 2.2l30.2 15.4c1 .5 2 .6 3.1.5 4-.5 7.4 1 9.5 4.5 1 1.5 2 2.4 3.4 3l3 1.6 2 .6 2.2-4.5-1.7-1.1c-1.6-1-2.1-2.1-1.7-3.6.6-1.9 1.7-2.6 3.7-2.5.6.1 1.3.5 2-.4-.5-.6-1-1.5-1.7-2l-7.7-5a15.7 15.7 0 0 1-7.4-10.1l-1.7-9.2a9 9 0 0 0-3.8-6.3c-2.6-1.7-5.5-2.9-8.4-4.3l-1 1.8-3.7 7.4c-1.7 3.2-1.2 2.8 1.2 4l6.5 3.4zm-30.5-16 .6.7 16.6 8.5c1.4.6 2 .4 2.7-1l4.5-8.7.5-1.4-1.4-1-7-3.5a9 9 0 0 0-9.7.9c-1.8 1.2-3.6 2.6-5.4 4-.5.3-1 1-1.4 1.6zm31 50a6.7 6.7 0 0 0 8.5 4.2c3.2-1 5-5.5 4.2-8.2-.8-3-5.1-5.6-8.3-4.5a6.8 6.8 0 0 0-4.5 8.5zm-37.2-18.8c3.6-1.3 5.4-5 4.3-8.5-1-3.3-5.6-5.2-8.5-4.3-2.6.9-5.3 5.2-4.2 8.3a6.8 6.8 0 0 0 8.4 4.5zM332 146a336.4 336.4 0 0 0-29.5-15l-.5 1.8 28.9 14.7 1.1-1.5zm-50.5-26.2c-.8 2-.6 2.7.6 3.4l1.6.8c1.6.7 2.2.3 2.7-1.3l-4.9-2.9zm71.7 36.7c-1.7-1-3.3-2-5.1-2.6-1 2.3-.8 2.6 2 3.9 1.5.7 2.2.4 3.1-1.3zm5.5-10.2c-1.3-1.6-1.3-1.6-2.5-.9.7.6 1.3 1.1 2.5.9z"/><path class="st0" d="M341 129.3c-.8.6-1.7.6-2.6 0l-3.1-2c-1-.6-1.2-1.6-.7-2.3.6-.8 1.3-.5 2 0l3.7 2.3c.7.4 1.2 1 .8 2zM347.6 145.1c-.2-1.1 1-3 2-3.3 1-.4 1.8.2 1.6 1.2a4.3 4.3 0 0 1-1.8 3c-1 .6-1.7.3-1.8-.9zM314.7 124.8c-.8.2-1.6-.4-1.2-1.2.4-1.1 1-2.2 1.8-3 .6-.7 1.7-.1 1.8.8.2 1.2-1.2 3.1-2.4 3.4zM323 124.9c-.5 1-1 2-1.7 2.8-.3.4-1.2.7-1.6.5-.3-.2-.7-1-.6-1.5.3-.9.8-1.8 1.5-2.5.8-.8 1.7-.4 2.4.7zM332.1 130.4l2.5 1.5-1.8 3c-.4.8-1.2.8-1.8.5-.5-.4-.8-1-.4-1.8l1.5-3.2zM298 109.1l2.4 1.4-1.8 3c-.4.8-1.2.9-1.8.5-.5-.4-.8-1-.4-1.8l1.6-3zM290.8 110.4c0-.6-.3-1.3-.1-1.8.4-.9 1-1.7 1.6-2.3.7-.7 1.5-.2 2 .6-.7 2.7-1.6 3.7-3.6 3.5zM325 132c-.1-.8-.4-1.5-.2-2 .5-.8 1-1.8 1.7-2.4.9-.7 1.7 0 2.2 1-1 1.2-1 3.4-3.8 3.4zM342.2 143c0-1-.3-1.6-.1-2.1.3-.8.9-1.6 1.4-2.3.3-.5.9-.8 1.4-.3.4.3.8 1 .7 1.4-.2.9-.7 1.7-1.3 2.4-.4.4-1.1.5-2 1zM303.9 113c2.2.8 2.3 1 1.5 2.6l-1 2c-1.9 0-1.9 0-2.5-1.2l2-3.4zM338.1 134.4c2.1.7 2.3 1.1 1.4 2.8-.6 1-1.1 2.3-2.9 1.8-1.2-2 1-3 1.5-4.6zM308.5 121.4c-.8-.7-1-1.3-.5-2l1.3-2.1c.3-.5.8-.9 1.3-.5.4.4 1 1 .9 1.4a7 7 0 0 1-1.4 2.5c-.4.4-1.1.5-1.6.7zM338.9 154.1c.3 1.6-.5 3-2 3.3-1 .2-2.8-1-3-2-.3-1 .7-3 1.7-3.3 1.4-.4 3 .5 3.3 2zM292.6 125.1c1.4-.3 2.7.5 3 2 .3 1.2-.8 2.9-2 3-1.2.3-2.9-.7-3.1-1.8-.4-1.6.4-2.9 2-3.2zM230.5 391.9l2 1.8 9.3 8c1.8 1.6 2.7 1.6 5 .5 1.7-.9 3.6-1.7 5.5-2.5 1.3-.5 2.5-1.1 3.8-1.5 1.7-.4 4.8 1.1 5.6 2.7.6 1.2.3 2.5-1 3.6l-7.9 6.4-2 1.6c-3.4 2.8-3.4 2.8-4.9 7.2l-4 11.4c-.8 2.4-2.4 3-4.5 1.7-2.6-1.5-3.4-3.5-3-6.4.3-1.3.3-2.6.4-3.9l.2-5.7c0-.8-.4-1.3-1.2-1.7l-12.3-7c-.5-.4-1.1-.5-1.8-.7l-11.8 30.2-.8 1.6a2.7 2.7 0 0 1-3.6 1l-3.1-2.2c-1.6-1.2-1.7-3-1.7-4.7 0-1.8.4-3.6.4-5.5.2-3.2.2-6.5.3-9.8 0-2 .3-3.8.4-5.7l.2-4.3.2-10c0-.6.2-1.1.3-1.7.2-1.5-.1-2.7-1.6-3.7-6-4-11.8-8.3-17.8-12.4-3.1-2.2-5-5-5.7-8.8l-.5-3.3a4.4 4.4 0 0 1 3.6-5l3.4-.7c3.6-.6 6.9.2 9.9 2.3l17.8 12.5c1.5 1.1 2.8 1 4.3.2a243.8 243.8 0 0 1 11.6-5l5.4-2a391.1 391.1 0 0 0 11.3-4.8l5.3-2.3c2-1 4.1-1.2 6.1.4.7.6 1.5 1 2.1 1.6 1.4 1.2 1.6 2.8.3 4-2 2-4 3.7-6 5.5l-19.5 17zM205 437.7l6.4-16.3 5.8-14.6c.3-.8.3-1.3-.6-1.8-.8-.4-1.6-1.1-2.3-1.8-1.4-1.1-1.4-1.2.2-2.6l2.4 1.3 8.6 5.3c3.7 2 7.3 4.2 11 6.3 1 .6 1.6 1.3 1.4 2.8-.4 2.6-.4 5.3-.6 7.9l-.2 3.5c0 .7 0 1.4.8 2 .6.4 1.1.6 1.8.2l4.5-13c.6-1.7.5-2.1-1-3.1-1.7-1.2-3.3-2.5-5-3.6-1-.6-1.3-1.3-1.1-2.4 1-.5 1.7-.5 2.6.2l5.3 3.7c1.2.8 1.8.8 2.8 0l2.3-2c3-2.3 5.8-4.7 8.7-7.1-.6-1.6-1.5-2.2-2.9-1.6l-3.8 1.6-7.6 3.5c-.4.2-1 0-1.5-.2l-1.4-1.1c-6.3-5-11.8-10.6-18.4-15-.4-.2-.9-.6-1-1-.1-.5-.1-1.2.1-1.7.2-.2 1-.2 1.5 0l2.6 1.6c2.1 1.5 2 1.5 4 0 0-.2.1-.2.2-.3l17-15 6.6-6-2.6-1.8c-.6-.5-1.3-.5-2-.2l-4.5 1.8c-1.7.8-3.4 1.7-5.2 2.4l-9.2 3.6-4 1.7-5.4 2.3c-2 1-4 1.8-6.2 2.7-2.3 1-4.3 1.5-6.8-.4-5.6-4.2-11.5-8-17.1-12.1-3.9-2.8-7.9-2.8-12.2-1.7-.9.2-1.5 1-1.4 2 .5 4.3 1.8 8 5.8 10.7 6.1 4.1 12 8.5 18 12.6 1.2.8 2 1.7 1.9 3.2l-.1 6.2-.3 4.5-.3 5.5-.1 5.7-.2 4.5-.4 5.7-.3 7c0 .8 0 1.8.4 2.3.8.8 1.9 1.3 3 2.1z"/><path class="st0" d="M229.6 402.6c1.1 0 2-.1 2.5.2.9.4 1.7 1.1 2.3 1.9.6.8-.2 2-1.1 1.8-1-.3-2-.9-2.8-1.6-.5-.4-.5-1.3-.9-2.3zM215 392.3c.6-.4 1.1-1 1.8-1.2.3-.1 1 .1 1.2.4.2.3.2 1 0 1.3-.4.8-1 1.5-1.5 2.2-.4.7-1.1 1-1.6.5-.4-.5-.5-1.4-.5-2 0-.4.5-.7.7-1v-.2zM206.3 386.3l-.9 1c-.3.4-.9.8-1.1.6a2 2 0 0 1-1-1.1c-.2-1 1.3-3.2 2.3-3.3.5 0 1.2 0 1.5.4.2.2 0 .9-.2 1.4l-.6 1zM220.6 396.4c.3-.4.5-.8.8-1 .4-.3 1.2-.7 1.4-.6.3.4.8 1.2.7 1.5-.5 1-1.3 2-2 2.9-.3.2-1.2 0-1.5-.2-.3-.3-.2-1 0-1.5 0-.4.4-.8.6-1.1zM209.5 388.9l.8-1c.3-.7.9-1.2 1.4-.8.5.3 1 1.3.8 1.7-.4 1-1 1.8-1.8 2.5-.3.3-1.3.3-1.7 0-.6-.3-.5-1 0-1.5l.5-1zM249.8 182.4c-.4-1-1.8-1.7-.7-2.7 1-1 1.9-.2 2.8.6l1.4-1.2 7.4-7.4a3 3 0 0 1 1.8-.8c1-.1 1.4.8 1 1.6l-1.2 1.3-6.8 6.8-1.6 1.7 2.9 3c1-1.2 2.2-2.1 3.1-3.2.8-.9 1.7-1 2.8-.7 1.7.6 3.5 1 5.2 1.8 1.4.6 2.8.7 4.4.7l12.8-.3c2.8 0 5.3.9 7.2 3.1 2 2.4 2.4 6.9.8 9.6-2.1 3.8-4.9 7-8 10a13003 13003 0 0 0-26.2 26.2L241.7 250c-1.1 1.2-2.5 2-4.1 2-3 0-4.1-2.4-3.8-4.5.1-1 .6-1.8 1-2.6 1-1.6.9-2-1-2.6a39 39 0 0 1-7-3c-2-1-4.2-1.8-6-3-1.6-1-3-2.4-4.2-3.9-.3-.4-.1-1.5.1-2.1.7-2 .4-3.9-.7-5.7-.7-1.1-.6-1.7.4-2.7l4.2-3.7 1.5-1-3.7-3.2-8 8-1.4 1.3c-.5.4-1.2.6-1.6 0-.3-.4-.3-1.2-.2-1.7.2-.5.7-.8 1.1-1.2l8.1-8-.7-2.8c0-.4.4-.9.6-1.3l.5.3 1.9 1.3c3.4-3 6.6-6.6 10.2-10l1.8 1.7-10.1 10.3 1.5 1.7c1.7 1.8 1.7 1.7 3.8.3 2.7-1.8 5.6-3 9-2.8 1.2 0 2.5 0 3.7.2 1.2.2 2-.2 2.9-1 1.3-1.5 2.6-2.9 4-4.2 1-.8 1.5-1.8 1.8-3 .7-3.2 1.6-6.3 3-9.3 1-2 2-4 3.5-5.6.3-.2.5-.6.7-.9v-.5c-2.3-2.7-2.4-2.7-4.9-.3l-6.3 6.3-1.6 1.5c-1.8-1.3-2-1.7-.5-3l7-7.2 1.6-1.7zm7.2 47.8 2.1-1.8 23.8-23.8c2.7-2.8 5.5-5.5 7.5-9 1.3-2.3 1.3-4.6 0-6.7-1.1-2-2.3-2.8-4.3-.7a173 173 0 0 1-7.3 7.3c-1.5 1.5-3 3-5.3 3.4-2.7.6-5.2 0-7-2-2.2-2.1-2.4-5.7-.8-8.5l1.3-2.6-4-1.4c-.9-.3-1.6 0-2.3.6-1.6 1.7-3.3 3.2-4.8 5a19.9 19.9 0 0 0-3 4.3 40.4 40.4 0 0 0-3.1 9.8 5.2 5.2 0 0 1-1.7 3.2c-1.2 1-2.3 2.3-3.4 3.4-1.2 1.1-2.2 2.7-3.6 3.2-1.6.5-3.5.1-5.3 0a12 12 0 0 0-8.6 2.4c-2.4 1.7-4.6 3.7-6.9 5.6l-1.6 1.5c.2.7.1 1.4.5 1.9 1 1.2.9 2.5.4 3.8-.7 2 0 3.3 1.6 4.4l1 .6 5.9 2.8c2.4 1.3 4.8 2.5 7.5 3 1.6.3 2.1.1 2.8-1.2l3.2-5.7 2.2-4.1c1.5-2.2 3.4-3.9 6.2-4 3 0 5.3 1.5 7 5.3zm-20.5 17.4c0 1.5.5 2 1.5 1.5a7 7 0 0 0 2-1.4l12.1-12c.7-.8 1.3-1.7 1.8-2.6.6-1.3.4-2.6-.5-3.8-2-2.7-5.7-2-7.3 1l-3.8 7-5.5 9.3-.3 1zm47-61.3h-1.1l-10.6.4c-.8 0-1.7.4-2.2 1a8 8 0 0 0-2 2.8c-.7 1.9-.2 3.9 1.6 5.2 1.8 1.2 3.9 1.2 5.5-.3l8.2-8 .6-1z"/><path class="st0" d="M237.5 224.4c0-.8.7-1.4 1.5-1.2 1.2.3 2.5 1.8 2.7 3 .1.7-.2 1.1-.8 1.2-1.2.2-3.4-1.8-3.4-3zM261 200.4c1.2-1.2 1.7-1.4 2.6-.6.7.6 1.3 1.5 1.8 2.3.1.3 0 1-.3 1.3-.3.2-.9.2-1.3 0a5 5 0 0 1-2.7-3zM255.8 213c-2.5.4-3-1.6-4.5-2.8l1.8-1.7c1.2 1.3 3.3 2 2.7 4.5zM256 205.8c1.5-2.2 1.9-2.3 3.2-1 .6.6 1.1 1.3 1.4 2 .2.3 0 1.1-.3 1.3-.4.3-1.1.2-1.5-.1-1-.6-1.8-1.4-2.7-2.2zM232.7 229c1-1.5 1.5-1.6 2.8-.4 1.4 1.2 1.4 1.3 1.4 3-1.6.7-2.5.2-4.3-2.5zM243.4 218.2c2.8 2 3.3 2.7 2.6 4.5-.6-.2-1.3-.1-1.8-.4a6 6 0 0 1-1.8-2c-.6-1 0-1.6 1-2zM251 217.6c-2 .3-2.1.2-4.3-2.6l1.2-1.6c2.6 1.3 3.4 2.5 3 4.2zM7.3 446l-2.5-1.7 1.7-3c.5-.8 1.2-1 2-.5.6.4.6 1.1.2 1.8L7.3 446zM42.5 326.7c1.9-.9 2.3-.8 2.8.8l1 3.3 2.3-.6-.4-2.2-1.7-6.4c-.3-1-.3-1.7.7-2.3 1.1 0 1.6.7 1.8 1.7l1.7 6.2.7 2.2c2-.6 4-1 6-1.7 3.1-.9 4.3-.9 5.4 3.2l1 5c.3 1.3-.4 2.3-1.3 3l-.2.2c-2.5 1.9-2.8 3.2-1.4 5.9.3.4 1 .7 1.5.8.4.1 1-.2 1.4-.3l20.5-5.5c2.4-.6 4.1-1.7 4.6-4.3l.8-2.3c.8-2.4 2.6-4 4.9-4.6 6.5-1.9 13-3.6 19.5-5.3 2-.5 2.7.3 2.4 2.2l-5.6 27.4-.8 3.9c2.6 1 4.8.5 6.8-1.1 1.2-1 2.3-2 3.5-2.8.8-.5 1.7-.7 2.5-1 .4 0 1 .3 1.2.6.2.3 0 .9 0 1.3l-.8.7-4.3 3c-2.8 2.3-6 2.9-9.4 2.1l-4.4-1c-1.2-.1-2.2.2-3.2 1l-3.8 3.4c-2.8 2.5-6 3-9.6 2.1-1.3-.3-2.7-.7-4.1-.9-1.2-.2-2.3.2-3.2 1l-3.8 3.4a10.2 10.2 0 0 1-9 2.3l-4.4-1c-1.4-.3-2.6 0-3.6 1l-3.5 3c-2.7 2.5-6 3.2-9.5 2.5-1.4-.3-2.8-.3-4.2-.4-.5 0-1 0-1.4-.3-.3-.3-.6-.8-.6-1.2 0-.3.4-.8.8-.8 1-.2 2-.5 3-.4 1.7.1 3.4.5 5.3.4l-2.6-2.3-6.3-5.1c-3.4-2.7-4.6-6.4-5.3-10.3-.2-1.5.8-3.2 2.3-3.7.8-.4 1.7-.6 2.5-.9 1.9-.5 2-.7 1.5-2.6l-.6-2.2-2.6-9.8c-.2-.8-.2-1.7-.2-2.6 0-1.2.6-1.9 1.8-2.2l.6-.2c1.9-.6 2-.8 1.5-2.8l-.5-2.5zm70.5 0-1 .2-16.1 4.3c-.5.1-1 .4-1.5.7-2 .9-2.3 2.8-2.8 4.5a8.4 8.4 0 0 1-6.5 6.3l-43 11.5-2 .5c-.9.3-1.3.9-1.1 1.8.6 2.6 1.2 5.2 3.4 7l10.5 8.8c.8.7 1.5.6 2.3-.1l3.8-3.4a5.6 5.6 0 0 1 5.3-1.4l5.2 1c2.4.5 4.4 0 6.2-1.6 1.3-1.3 2.7-2.3 4-3.5 1.6-1.4 3.4-2 5.5-1.4 1.9.5 3.8.9 5.8 1.1 1.7.3 3.4-.2 4.8-1.2 1.2-.9 2.3-2 3.4-3 2.1-2 4.4-3.4 7.5-2.3l.5-.1.7-1.5c.4-1.8.8-3.7 1-5.5.3-1.3.8-2.7-.5-3.8-.3-.2-.3-.8-.4-1.2-.5-2.1.2-2.9 2.4-2.5 1-4.4 2-8.8 2.8-13.3.2-.5 0-1.1-.2-1.8zm-71 8.4-.1.4 3.5 13.3c.4 1.3.9 1.4 2.3 1l9.7-2.5.9-.4c0-.4.1-.6 0-.8l-.7-3.4c-.5-2 0-3.6 1.8-4.7l1.9-1.6c-.5-2-1-4.2-1.6-6L42 335zM122 368.3c1 2 .9 2-.3 3-2.4 2-5.1 2.1-8 1.6l-5.3-1c-1-.3-1.5-.2-2.2.5-1.7 1.6-3.6 3-5.4 4.5-2.3 2-5 2-7.8 1.6a74 74 0 0 1-5.5-1.1c-.9-.2-1.4 0-2 .5l-5.4 4.6c-2.4 2-5.1 2.1-8 1.5l-5.5-1c-.8-.3-1.3 0-1.9.4-1.8 1.7-3.7 3.1-5.6 4.7-2.2 2-4.9 2-7.5 1.6-1.5-.2-3-.7-4.4-.5L46 389c-.8 0-1.3-.4-1.2-1 .2-.6.7-1.2 1.2-1.3 1.8-.4 3.7-.3 5.5.2 3 .8 5.4.1 7.6-2.1 1.4-1.4 3-2.6 4.4-3.9 1-.7 2-1 3-.8 2.4.5 4.7.8 7 1.4 2.6.6 4.4-.6 6.2-2l4.5-4c1-.9 2-1.1 3.2-.9l7 1.3c2.5.6 4.3-.6 6.1-2l4.5-4.1c.9-.8 2-1 3-.8l8 1.4c1.3.3 2.5-.1 3.5-.8.7-.5 1.5-.8 2.4-1.3z"/><path class="st0" d="M93.4 370.2c-.7 1.9-1 2-2.4 1.8l-4-1c-1.7-.3-3 0-4.3 1.2a82.8 82.8 0 0 1-4 3.5 9.5 9.5 0 0 1-8.5 1.8l-4.2-.9c-1.5-.3-2.8 0-4 1-1 1.2-2.1 2.3-3.4 3.3a10 10 0 0 1-9 2.1c0-.6-.3-1.3 0-2 .1-.3 1-.5 1.6-.4 2.6.5 4.4-.8 6.2-2.3l3.3-3c1.7-1.6 3.5-2 5.7-1.4l4.3 1c3 .7 5.4-.1 7.5-2.2l3.3-3c1.4-1.3 2.9-2 4.8-1.5 1.7.5 3.5.7 5.2 1.2l2 .8zM125.8 358.7c.1.6.3 1.1.2 1.5-.2.4-.6 1-1 1-2 .7-3.2 2.2-4.7 3.4-2.6 2-5.3 2.4-8.4 1.9-1.3-.2-2.6-.7-4-.8-1-.2-2-.2-3.1 0-.9.1-1.6 0-2-.7-.5-.7.2-1.2.7-1.7.7-.7 1.4-1 2.4-.7l5.8 1c3.1.9 5.8.2 8-2a9.3 9.3 0 0 1 4.4-2.7l1.7-.2zM101 366.1c1 1.8 1 1.8-.4 3-.6.7-1.3 1.3-2.1 1.8-.6.5-1.3.4-1.6-.2-.3-.4-.4-1.3-.2-1.5 1.2-1.2 2.3-2.6 4.2-3.1zM97.2 335c1-1.7 3.6-2.5 5.2-1.5 2.6 1.6 2.8 3.1 1.5 5.5-1 2-3.2 2.6-5.2 1.5-1.9-1-2.6-3.7-1.5-5.5zm2.3 1.3c-.1 1 0 1.7 1 2 .3 0 .8-.3 1-.5.3-.5.6-1 0-1.6-.7-.7-1.3-.3-2 .1zM91.9 351.5l-2.4.6c-.4-1.2-.8-2.3-1-3.4-.2-.8.1-1.4.9-1.7.7-.2 1.3.2 1.5 1 .4 1 .6 2.2 1 3.5zM46.1 363.6c-1.7.8-2.2.6-2.7-1-.2-.5-.4-1-.4-1.6-.1-1 .4-1.6 1.8-1.9 1 1.3 1.3 3 1.3 4.5zM59.6 360.6l-2.5.4-1-3.6c-.2-.7-.1-1.4.7-1.7.9-.2 1.5.2 1.8 1l1 3.9zM70.4 357.2c-1-1-1.3-2.3-1.3-3.6 0-.5.4-1.2.7-1.3.4-.1 1 .2 1.4.5.9.9 1 2 1 3.2-.2 1-.8 1.3-1.8 1.2zM78.8 354.9c-1.8.7-2.5.5-3-.7-.2-1-.8-2-.1-3 .3-.2.6-.7 1-.7.3 0 .8.3 1 .7l1 3.7zM52.8 361.7c-2 1-2.3 1-2.8-.7l-.5-1.8c-.1-.8.2-1.5 1-1.8.8-.2 1.3.4 1.5 1l.8 3.3zM84 348.6l1.3 4.6c-2.1.8-2.4.7-3-1 0-.5-.2-1-.3-1.4-.2-1.4.2-1.8 2-2.2zM96 350.3l-1-3.4c0-.6-.1-1.3.7-1.6.8-.3 1.4.2 1.7.7.4 1 .7 2 .8 3 0 1.1-1 1.3-2.2 1.3zM63.6 359l-1-3.7c0-.4.2-1 .5-1.2.5-.5 1-.1 1.5.2.6.6 1.3 2.8 1 3.6-.1.7-.3.8-2 1zM101.6 344c.7-.6 1.3-.8 2 0a4 4 0 0 1 1 3.5c-.2 1-1 1-1.8 1a6.8 6.8 0 0 1-1.2-4.6zM58 333.5l.4 1.8-12.7 3.3c0-.5-.2-1.2-.4-1.8l12.7-3.3zM445 438.6c-1.4-.6-1.8-1-1.3-2.2.5-.8 1.2-1.6 1.9-2.3.2-.2 1-.2 1.2 0 .3.1.5.7.4 1-.1 1.5-1 2.7-2.1 3.5zM195 269.4a39 39 0 0 1 .6 13.2c-.3 2.3-.3 4 2 5.3.7.4 1.2 1 1.9 1.5 2.8 2.2 5.2 4.9 6.7 8.1a9.2 9.2 0 0 1-.3 8.7l-4 7c-1 1.2-2.1 2.3-3.4 3.3-1.2 1-2.7 1-4.2.2-1.3-.9-2.3-.7-3.8.1-6.6 3.8-14.4-1.4-14-8.3.1-1.5-.4-2.4-1.8-3.2L149 290.6c-1.3-.8-2.4-1-4 0-3 1.7-6.2 1.9-9.4 0a8.6 8.6 0 0 1-4.5-8.3c0-1.3-.4-2.3-1.6-3.1-3.4-2.5-4-6.1-1.8-9.7 1.4-2.4 3.3-4.2 5.2-6.1 4.3-4.3 9.4-7.6 14.4-11a21.7 21.7 0 0 1 17-3.2c5 1 9.6 3 14 5.5 3.3 1.8 6.5 3.9 9.9 5.6 3.6 2 5.6 5 6.7 9.1zm-2.6 18c.3-2.6.6-5 .7-7.3.2-3.9 0-7.7-1.2-11.5-.6-2.2-1.9-4-3.8-5.1-7-4.1-13.9-8.7-21.8-11-3-1-6.2-1.4-9.4-.9a24 24 0 0 0-11 5c-3.9 3-8 5.6-11.5 9a37.9 37.9 0 0 0-4.4 5.4c-1.7 2.5-.8 5 2.2 6.4 1.8-1.5 3.4-3.5 6-4a9 9 0 0 1 7.3 1.3c3.7 2.6 5.6 6.2 3.4 11.9l29 16.7c1.5-1.2 3.2-3.2 5.8-3.7 2.6-.6 5.2-.2 7.2 1.3 3.7 2.8 5.5 6 3.3 12.4.5.3 1 .8 1.7 1 .4.1 1 0 1.3-.2 1-.9 2-1.8 2.7-3 1.2-1.7 2.2-3.6 3.3-5.5 1.6-2.7 1.4-5.4-.1-8a20.2 20.2 0 0 0-5.8-6.4l-4.9-3.9zm-4.7 27.8a6.7 6.7 0 0 0 4.5-8.4c-.8-3-5.1-5.6-8.4-4.5-3 1-5.5 4.9-4.4 8.2a6.7 6.7 0 0 0 8.3 4.7zM142 289c3.6-1 5.7-4.7 4.7-8.3-.8-3.3-5.2-5.4-8-4.7-3 .7-5.8 4.9-4.9 8a6.7 6.7 0 0 0 8.2 5z"/><path class="st0" d="M188.5 285c-2-1-2-1-1.8-2.4.5-3.5.7-7 .2-10.5a6 6 0 0 0-3.5-5c-2.7-1.3-5.2-2.9-7.7-4.2l-5.1 9 2.3 1.4c.5.3.8.8 1 1.4.4.9-.3 1.6-1.3 1.3a5 5 0 0 1-1.1-.5l-22.9-13.3-.8-.5c-1-.7-1-1.4-.2-2.2 4.5-3.8 9.5-6 15.3-4.7 3.3.6 6.5 1.7 9.5 3.3 4 2 7.7 4.5 11.8 6.4 4 1.8 5.3 5.1 5.6 9 .2 3-.2 6-.4 9.1 0 .8-.6 1.5-1 2.3zm-16-23.7c-.2-.2-.5-.5-.8-.6-3.6-1.6-7.2-3.2-11.2-3.5-3.5-.2-6.6.8-9.4 3.2.4.3.6.6.9.7l14.6 8.5c.4.2.9.2 1 .2l4.9-8.5z"/><path class="st0" d="m182.1 281.6-5.2-3c-.6-.4-1.1-1-.6-1.7.4-.4 1.4-.7 2-.5 1.5.7 3 1.6 4.4 2.5 1 .7.8 1.2-.6 2.7zM155.2 287.6c0-1.5.7-2.6 1.7-3.6.4-.4.8-.9 1.4-.4.3.4.7 1 .5 1.3-.3 1-.7 2-1.4 2.9-.6.7-1.5.8-2.2-.2zM174.5 298.5c-2.2-.6-2.3-1-1.4-2.6l1-1.8c.4-.6 1-.7 1.6-.4.8.4 1 1 .6 1.7l-1.8 3.1zM171 291.1l-2.4 4c-2-.7-2.2-1.1-1.5-2.5.3-.5.5-1 .9-1.4.8-1.2 1.3-1.2 3 0zM162.4 291.8c-1.7-1-1.8-1.6-.7-3.5 1-1.5 1.7-1.7 3.1-.7-.3 1.6-1 3-2.4 4.2zM185.2 306.2c1.5-.4 2.7.3 3.2 1.9.3 1-.8 2.9-2 3.1-1.2.3-2.9-.7-3.1-1.7-.5-1.7.3-3 2-3.3zM139.7 280c1.5-.4 3 .4 3.4 2 .2 1-1 2.7-2 3-1 .3-3-.7-3.3-1.6-.4-1.5.4-3 2-3.4z"/><g><path class="st0" d="m298 343.9.1 1 .4 1.6c1 3.6.3 3 3.9 4 1.1.4 2.2.8 3.3 1-.2 2-.6 2.4-2.3 2-1-.1-2-.4-3.3-.8l.1 2c0 .8.2 1.7 0 2.5-.4 1-1.5 1-2 0-.4-1-.6-2-.8-3l-.6-2.4-9.7-2.6c-7.7-2-15.4-4-23-6.2-1.5-.4-2.5-.2-3.4 1-.6 1-1.5 1.5-2.2 2.3-.5.6-1 .6-1.4.2-.4-.3-.6-1-.4-1.5.2-.6.8-1.2 1.2-1.8l1-1.5c-1.3-.4-2.4-.6-3.4-1-1.5-.4-1.6-1-1-2.8l4.5 1c1.5.4 2.7.5 3.6-1 .4-.8 1.2-1.3 1.8-2 .2-.2.2-.6.4-1.1l-2-.7c-2.2-.6-4.4-1.1-6.6-1.9-2.8-1-4.5-3.4-4-6.3.7-3.9 1.7-7.7 2.7-11.4.8-3 1.9-6 2.8-9l7-21.9c1-3.2 2-6.4 3.3-9.5 1.6-4 5.8-7.1 10.5-7.3 2 0 4 .4 6 .9l5.6 1.5c1.7.5 3.3.5 5.2 0 3.6-1 7-.1 9.5 2.6a8.4 8.4 0 0 0 4.4 2.5l7.5 2c4 1.2 7 3.5 8.5 7.5.9 2.4 1 4.7.5 7.2-1.4 6.4-2.9 12.9-4 19.4-1.8 9.7-4.2 19.3-6.7 28.9-.5 2-1 3.8-2.7 5.2-1.4 1.2-3 1.9-4.8 1.5-2.3-.5-4.5-1-6.6-1.7-.8-.2-1.4-.6-2.1-.9l-.7.5zm-23.7-73.1a10 10 0 0 0-4 5l-3.5 10a3024 3024 0 0 0-8.9 28.5l-2.9 10.5c-.4 1.6-.4 3.1.9 4.2.8.6 1.9 1 3 1.3l47 12.6 1.3.4c2 .4 3.6-.5 4.4-2.4l.6-2.2c2.4-9.2 5-18.4 6.6-27.8 1.2-7 3-13.7 4.4-20.6a9 9 0 0 0-2.2-8.4c-1.4-1.4-3-2.5-5-3l-9-2.4a6 6 0 0 1-3.3-2c-2.4-3-5.5-3.6-9-2.4-1.2.5-2.4.4-3.6.1-3-.8-6-1.7-9.1-2.4-2.6-.7-5-.4-7.7 1zm-9.7 69.5 1.2.4 28.3 7.6.8.2c1 .2 1.3-.2 1.2-1-.2-.9-.6-1.6-.6-2.4 0-2-1.1-2.5-2.7-3-7.2-1.8-14.4-3.6-21.6-5.8-2.3-.7-3.8-.2-5.2 1.7-.2.4-.7.7-1 1l-.4 1.3z"/><path class="st0" d="M306.9 284.2c0 .9 1.1 1.1 2.1 1.4l7.2 1.9c2.5.6 3.6 2.8 3 5.2-1.5 6.6-2.9 13.2-4.2 20-.6 3-3.2 4.2-5.8 3.5-13.3-3.7-26.7-7.2-40-10.8-3-.8-4-2.9-3.2-5.8l3.8-12 3-8.4a3.4 3.4 0 0 1 3.8-2.2l7.8 2c1.2.3 2.3.6 3.4-.5.6-.6 1.5-.8 2.5-.6.4.1 1 .1 1.4.3l11.7 3.1c1.5.4 2.8 1 3.5 2.9zm10 6.5-1.4-.6-8.1-2.2c-.7-.2-1.1 0-1.7.4a5 5 0 0 1-4.9.6l-4-1-1.8 7-.7 1.8c-.3.6-.6 1-1.4.9-1-.2-1-.9-1-1.6 0-.6.2-1.3.4-2l1.8-6.9-4.2-1.1a4.9 4.9 0 0 1-3.5-2.8c-.4-.7-.8-1.2-1.6-1.4l-7.6-2-2-.2-6.5 21c-.5 1.5-.2 1.9 1.6 2.3l39.2 10.6c2 .5 2.3.2 2.8-1.7l2.1-9c.9-4 1.6-8 2.4-12.1zm-27.5-10.3c-.6 2.2-.5 2.5 1.1 3l11.4 3c1.6.4 2 0 2.2-2a210 210 0 0 0-14.7-4zM303.3 321.7c3.1-1.4 5.6-.8 7.3 2.2 1.6 2.7.8 5.5-2 7-3 1.7-5.5 1.1-7.3-2-1.7-3-.7-5.3 2-7.2zm4 7c1.2-1.7 1.5-3 .8-3.9-.8-.9-2.7-1.3-3.6-.7-1 .7-1.4 2-1 3.2.4 1.3 1.7 1.7 3.8 1.4zM264.5 311.3c3-1.5 5.6-.8 7.2 2.2 1.6 3 .6 5.6-2.2 7-3 1.6-5.4 1-7.2-2.2-1.5-2.7-.5-5.5 2.2-7zm.1 5.9c.5 1 2.7 1.6 3.7 1.1s1.6-2.5 1.1-3.6c-.5-1-2.5-1.6-3.6-1.1-1 .3-1.7 2.6-1.2 3.6zM264.8 328.8c-2-.1-2.4-.4-2-2 0-.7.3-1.5.6-2.2.2-.7.9-1 1.6-.7.7.2 1 .7.8 1.4l-1 3.4zM283.8 334c-1 0-1.7-.3-1.6-1.2.2-1.1.5-2.2 1-3.2.2-.6.8-.8 1.3-.5.3.3.6.7.7 1.1.2 1.5-.3 2.8-1.4 3.9zM297.3 337.6c-2.2-.4-2.4-.7-2.1-2.2 0-.5.2-1 .3-1.4.5-1.6.9-1.7 2.9-1l-1.1 4.6zM270.1 325.5c2.2.3 2.5.6 2.1 2.2 0 .5-.2 1-.3 1.4-.5 1.5-.9 1.7-2.9 1l1.1-4.6zM275.5 331.6l1.2-4.2c1.2-.3 1.8 0 2 .9a4 4 0 0 1-.8 3.4c-.5.7-1.3.9-2.4 0zM307.7 340.4l1.4-4.3c2 0 2.4.5 2.1 2 0 .5-.2 1-.4 1.6-.5 1.2-1 1.4-3 .7zM259.4 322.7l-1.1 4.3c-2 0-2.4-.5-2.1-2.1 0-.5.2-1 .4-1.4.5-1.4 1-1.6 2.8-.8zM290.7 335.7c-1 .2-1.6.1-2-.7-.4-1 .1-3.2 1-3.8.4-.3 1-.4 1.5-.2.3.1.5.8.4 1.2-.2 1.2-.6 2.4-1 3.5zM301.4 338.7l.9-3.5c.2-.7.7-1.1 1.5-1 1 .3 1.2 1 1 1.8l-.6 2c-.5 1.4-.8 1.5-2.8.7z"/><path class="st0" d="M291 305.6c-.2-.1-.7-.3-1-.6-.6-1 0-3.4.9-4.2.6-.4 1.6-.2 1.9.5.5 1-.3 3.6-1.7 4.3z"/></g><path class="st0" d="m438.7 18-2-1.4 13.3-4.2V9.6l-13.5 4.3L420 19c-1.9.7-3.3.5-4.7-.9.1-.3.2-.7.5-1l3.9-4.1 3.2-3.5 6.6-7.5 2-2.1h-3.6l-1.7 2-6.7 7.2-7.3 8c-.9 1-.9 1.9.2 2.6l3.7 2.2c1 .6 1.9.5 3 .2l12-3.9c1.3-.4 2.4-.4 3.6.4 1.1.8 2.3 1.4 3.5 2 .3 0 1 0 1.3-.2.5-.3.5-1 .1-1.5a4 4 0 0 0-.9-1zM450 2.6c-.6.9-1.1 1.7-1.4 2.6-.2.5.2 1.3.6 1.7h.8V2.5zM443.6 0a7 7 0 0 0-.9 1.7c-.2.7-.2 1.5.7 2 .8.3 1.2-.3 1.6-.9l1.6-2.8h-3zM437.3 0l.2.2c.3.1.8 0 1.1-.2h-1.3zM139.6 0c1 .8 2.2 1.4 3.3 2l.6-.3c0-.5.3-1.2.2-1.7h-4.1zM125.8 0h-5.4l4.3 2.5 1.5.6c1 .2 1.6-.4 1.2-1.9L125.8 0z"/><path class="st0" d="m168.9 0-.2 15.7c0 .8-.2 1.5-.3 2.2a97.2 97.2 0 0 1-16.1-8.8l5.4-9.1H154l-3.8 6.4c-1.7 2.7-1.4 4 1.5 5.6 4.4 2.4 8.7 5 13 7.5l2 1.3-2.4 4.4-2 3.5c-.6 1-1.3 1.2-2.2.7l-5.3-3.1c-.5-.3-.8-1-1-1.7-1.3-3.3-6-6-9.6-5.5-.8 0-1.7-.1-2.5-.4-.8-.2-1-.9-.7-1.7l.8-1.4L151 0h-3.2l-8.4 14.5c-1.1 2-1.4 2-3.3.9l-6.9-4 .4-1.4 5.8-10h-3L128.7 6l-1 1.6c-1.2 2.2-1.2 2.2-3.4 1l-7.8-4.5a5 5 0 0 1-2.2-2.4A11 11 0 0 0 113 0h-4c1.4.8 2.7 2.2 3.1 4 .8 3.2-1.4 7.3-4.8 8-3.5 1-7.3-1.4-8.2-4.8-.7-2.5.8-5.6 3-7.2h-8.8l2.2 1.3 1.4 1c-1.6 4 .1 9.1 3.5 11 2 1 3.8 1.8 6 1.6 2.7-.2 4.7-1.6 6.3-3.1l23.5 13.6a9.5 9.5 0 0 0 16.3 9l1.7.8 4 2.3a4 4 0 0 0 5-.3c1.4-1.2 1.6-2.8.9-4.5-.4-.8-.3-1.6.2-2.5 2-3 3.6-6.3 5.6-9.4.9-1.5 1.2-3.1 1.2-4.8l.4-16H169zm-54.3 8.8.5-1.6 24 13.9-1 1.3-23.5-13.6zm32.6 26c-3.5 1-7.4-1-8.4-4.6-1-3.5 1.4-7.3 4.6-8.2 3.4-1 7.3 1.4 8.3 4.5 1 3.1-1.3 7.5-4.5 8.4zm14.5 0c-.4.4-1.5.7-2 .4-2-1-3.8-2.1-5.8-3.3l1-2.4L161 33c.6.4 1.1 1.1.6 1.7zM1 405.7c1.8.6 3 1.4 3.3 3.3 1.7 8.3 3.6 16.6 5.5 24.9l2.6 12.1c.3 1.5 1 2.4 2.4 3.2l1.4.8h5.4a448 448 0 0 0-4.7-2.8c-1-.5-1.6-1.2-1.9-2.3l-4.3-19.5c.4 0 .7 0 .9.2l1.6.8c1 .4 1.8.1 2.1-.6.4-.9-.2-1.3-.8-1.6l-3-1.8c-1.3-.6-2-1.6-2.2-3-.8-4.2-1.8-8.3-2.7-12.5-.2-.6-.5-1.4-1-1.7-1.4-1-3-2-4.6-2.7-.3-.2-.7-.2-1-.2v7-.1l1-3.5zM437.3 450h1.3l.2-.1c1.1-1 1.7-2.1 1.8-3.5-.6-.8-1.4-1.2-2-.4a10 10 0 0 0-1.7 2.9c-.1.2.1.8.4 1.1zM446.5 450c-1.3-1.2-1.9-1.4-2.4-.6l-.5.6h3zM139.5 450h4.3l-.5-.6a5.7 5.7 0 0 0-2.2-1.3c-.6-.1-1.4.1-1.8.5-.5.5-.2 1 .2 1.4zM125.8 450l-20.7-12-1.1-.5c-.7-.3-1.4-.1-1.8.5-.5.7-.2 1.3.5 1.7l1.2.8 16.5 9.5h5.4z"/><g><path class="st0" d="m155.2 436.1-8.4-4.8c-2-1.2-3.2-1-4.4 1.2L132.3 450h3a286 286 0 0 1 9.6-16.4l9 5.2c-.3.5-.5 1.3-1 2l-5.2 9.2h3.3l4.8-8.4.9-2.1c.4-1.7 0-2.5-1.5-3.4z"/><path class="st0" d="m90.9 448.6 2.4 1.4h8.9c.5-.4 1.1-.7 1.8-.9 1.6-.4 3.4 0 5 .9h4.2a11.2 11.2 0 0 0-5.6-3.6c-.9-.3-2 0-3 0s-1.9 0-2.7-.6l-4.1-2.4c-1.2-.8-1.4-1.4-.7-2.6l3.7-6.4c.7-1.2 1-1.2 2.2-.6l7.3 4.2c2.2 1.2 3.5.9 4.8-1.2l8.5-14.9c1.2-2 .8-3.6-1.3-4.8l-6.8-3.9-1.6-1.1c1-1.7 1.5-2 2.9-1.1l14.1 8.1 36.2 20.8c1.5.8 2 1.8 2 3.5l-.2 6.6h2.7l.2-6.8c0-2.6-1-4.3-3.3-5.6l-33-18.9-17.5-10c-.7-.5-1.6-.7-2.5-.8-1.9 0-3.1 1-4 2.6L95 439.1c-.7 1.2-1.4 2.2-3 2.3-1.6.2-2.7 1.4-2.9 2.9-.2 1.7.2 3.3 1.8 4.3zm21.7-33.5 8.7 5c-.3 1.4-5.7 11-8.8 15.7a41 41 0 0 1-9.2-5 5622 5622 0 0 0 9.3-15.7zM92 444.6c.2-.8 1-.7 1.8-.4l6 3.5c-1.1 2.2-1.3 2.3-3.1 1.2l-3.4-2c-.3-.1-.7-.2-.9-.5-.2-.6-.6-1.3-.4-1.8z"/><path class="st0" d="m165.9 442.3-2.3-1.4c-2.5-1.6-3.8-1-5.1 1.4-1.2 2.3-2.6 4.6-4 6.8 0 .3-.3.6-.4 1h3.5l4.2-7c1.6-.1 2.9 2.8 5.3 1.5.2-1.2-.2-1.9-1.2-2.3z"/></g><path class="st0" d="M2.8 437.6c-.3-.3-.9-.3-1.3-.2-.9 0-1.2.8-1.5 1.5v2.7l1.1.5 1.9-3.3c.1-.3 0-1-.2-1.2zM0 2.7V7c.3-.1.6-.3.8-.7l1.7-3C1 2.1.6 2 0 2.7zM37.4 17.4l-.5-1.4c-1-1.8-1.8-3.7-3-5.3C32.2 7.9 30 5 27.2 3.3L21.6 0h-5.3c2.8 1.5 5.5 3.3 8.3 4.9 3.3 1.8 5.5 4.6 7.4 7.8 1.4 2.3 1.3 2.3 1.4 3.7-3.1.3-6 0-9-.6-2.7-.6-5-1.9-7.2-3.2L9.7 8.3c-1.5-1-2.8-1-4.4-.5L0 9.5v2.9l5.7-1.8c1.1-.4 2.1-.3 3.1.3l8 4.6c1.5.9 3.2 1.8 5 2.4 3.4 1 7 1.5 10.6 1.4 1.3 0 2.6-.2 4-.4 1 0 1.2-.6 1-1.5zM450 402.4c-.5 0-.8.5-1 1.3l-1.6 5-3.2 9.4-1.4 4.3-2.3 7.4c-.2.6-.5 1.3-1.2 1.2-.4 0-.8-.7-1-1-.3-.3-.4-.7-.5-1l-1.4-4.5-3-8.5c-.2-.7-.5-1.1-1.2-1.2l-5.7-.3c-1.2 0-1.5.5-1.7 1.8-.4 3.7-.6 7.3-1.2 11-.4 2.4-1.7 4.7-3.6 6.3-2.8 2.3-5.8 4.2-8.7 6.3-1.3 1-1.5 1.6-.6 2.9.8 1.2 1.8 2.4 2.4 3.7.7 1.2 1.5 1.4 2.7 1.2a719.1 719.1 0 0 1 14.2-2.9c.4 0 1 .3 1.2.6 0 .3-.1.9-.4 1.2l-3 3.4h3.7l1.7-1.8 1.5-1.7c.9-1.4.7-2-.6-3a6.7 6.7 0 0 0-6-1.2c-3.4 1-6.9 1.5-10.3 2.2-2.3.5-2.3.5-3.7-1.6l-.4-.4-.3-.5c.3-.3.5-.8.9-1l7-5.2c3-2.1 4.6-5 5-8.6l1-8.7c0-.4.2-.8.4-1.1l.4-.1c4 .4 3 0 4.3 3.6l3.3 10.2c.7 2.3 2.7 2.8 4.5 3.7.6.3 1.4 0 1.7-.8l.8-1.7 2.8-9.4 1.8-5.3 1.8-5.6 1-2.8v-6.8zM415 107.1c-1.1.5-2.1 2.5-2 3.7.2.8.6 1 1 1 1.6-.6 2.9-2.5 2.6-3.8-.1-.7-1-1.2-1.7-.9zM401.9 105c2.5 0 2.5-2.1 3.6-3.7l-2.3-1.4c-.5 1.8-2.7 3-1.3 5zM409.2 103.6c-.8 1.4-2.5 2.5-1.5 5.1.9-.5 1.6-.7 2-1.3.6-.6 1-1.5 1.2-2.3.2-1-.6-1.4-1.7-1.5zM422.6 111.3c-1.3-1-1.8-1.2-2.4-.6a7 7 0 0 0-1.3 2.3c-.2.5 0 1.2.1 2.2 2.7-.4 2.8-2.4 3.6-4zM404.2 124.3c-1.6.4-2.3 1.6-1.9 3.2.3 1.2 1.7 2 3 1.8 1.5-.4 2.3-1.7 2-3.2-.5-1.6-1.5-2.2-3.1-1.8zM450 438.9l-.2.5c-.7 1.1-.8 1.6.2 2.2V439z"/><g><path class="st0" d="M16.9 294.2c-1 .8-1.2 1.9-1.1 3.1 0 1 .6 1.3 1.6 1.3A5 5 0 0 0 19 295c0-.4-.3-1.1-.6-1.2-.4-.2-1 0-1.4.4zM11 291.5a6.6 6.6 0 0 0-1.5 4.4c1.4.7 1.5.7 2 .2 1-1 1.3-2.2 1-3.5 0-1-.6-1.2-1.5-1.1zM5.3 289.4c-.8-.3-1.2.3-1.4.9l-1 3.4c1 .6 1.8 1 2.4 0 .6-.7.9-1.8 1-2.8.1-.6-.2-1.3-1-1.5zM1.6 313.4c-.6.3-1.2.9-1.6 1.6v4c1.3 2.1 3 2.5 5.2 1.4 2.3-1 2.8-3 1.7-5.3-1-1.7-3.5-2.5-5.3-1.7z"/><path class="st0" d="m24.4 290.1-3-1L15 287l1.3-4.3c.4-1.3.5-2.6-.6-3.8-.3-.3-.4-1-.3-1.4.3-1.6 1-2 2.8-2.1.7 0 1.6 0 2-.9.5-1.6 1.4-3.2 1.3-5a9.3 9.3 0 0 0-9.1-.5 9.8 9.8 0 0 0-4.8 5.2c-.3.7-.5 1.5-1.4 1.5-1.7.2-2.4 1.3-2.8 2.8l-1.4 4-2-.7v3l2.1.7 19.2 6.4 1.4.4c1.4.6 1.7 1.2.9 2.5a1344.6 1344.6 0 0 1-9 12.8l-2.3 2.9-1-.7c-1.7-2-4.2-3-6.8-3.4a8.2 8.2 0 0 0-4.5.4v4.3a7 7 0 0 0 3.6-2.1c1.2-.1 2 .4 2.6 1.5.8 1.2 2 2 3.4 2.4 1.2.3 1.8 1.7 1.2 2.8a4 4 0 0 0-.4 3.6c.5 1.7-.9 3.5-2.6 3.5-1.5-.1-2.7.5-3.7 1.3s-1.8.8-2.8.7L0 322.9v4.3c2.2.7 4.8.8 7.3-.2a10.6 10.6 0 0 0 6.5-12.7c-.3-.8 0-1.3.4-1.9 2-2.5 3.9-5 5.7-7.7l6-8.5c1.7-2.3 1-5-1.5-6zm-12.5-4.5-7.2-2.4 1.4-4.6c2.5.4 4.7 1.2 6.8 2.1.3.1.7.7.7 1.1.1 1-1 3.1-1.7 3.8zm1.5-10.2c-1 2-1.7 2.2-3.5.7.9-4 5.4-6.4 8.4-5 0 .8-.1 1.3-1 1.4-2 .1-3.1 1.3-4 3z"/></g><g><path class="st0" d="M449.1 287.3c-.9-.3-1.5.2-1.7 1l-1 3.3 2.3.8 1.1-3.2c.3-.8.2-1.5-.7-1.9zM440.9 286.4l-.5 1.3c-.5 1.8-.2 2.2 2 2.4l1.3-4.4c-1.7-.7-2.3-.6-2.8.7zM409 285.8c-5.4 2.8-7.4 8.3-4.8 14.2 2.3 5.2 9.3 7.7 14.4 5 5.4-3 7.3-8.6 5-14.2-2.8-5.4-9.2-7.8-14.5-5zm8.6 16.6c-3.7 2.1-9.1.5-10.9-3.2-2-4.3-1-8.3 3.2-10.8 3.5-2.2 9.4-.5 11 3.2 2 3.8 1 8.3-3.3 10.8z"/><path class="st0" d="M412 291.7a4 4 0 0 0-1.8 5.4c1 2 4 2.6 5.3 1.9 1.9-.7 2.8-3.8 2-5.4-1-2-3.5-3-5.4-1.9zM439.6 257l-7-2.2-7.3-2.5-1.2-.3c-1.7-.3-3 .3-3.4 1.8l-3.4 10.2c-.5 1.7 0 2.7 1.7 3.3l17.4 5.8c.4 0 .8.2 1.3.4.6.2 1.4 0 1.7 0 2-1 2-2.5 2.2-3.9l.9-7.5c.4-2.9-.4-4.2-2.9-5zm0 5.6-.7 6.5-.2 1.6-3-.7v-.4a7099 7099 0 0 1-15.4-5c1-3 2-6.3 3.3-9.8l1.6.4 8 2.7 4.5 1.5c2.2.7 2.3 1 2 3.2z"/><path class="st0" d="M450 327.1V323a6.4 6.4 0 0 0-3-2 2 2 0 0 1-.9-.4c-.3-.5-.4-1.2-.5-1.8l.1-.2.1.4c0-.3.2-.6.5-1 .9-1.2.6-2.8.4-4.2-.1-1.4.4-2.3 1.7-2.4.6 0 1.1 0 1.6-.2v-4.3l-.8.4a4 4 0 0 1-3.4.1l-2.5-.8L433 303c-1.7-.6-1.9-.8-1.3-2.6 1.7-5.6.7-10.7-2.4-15.5a18 18 0 0 0-12.3-8.2c-2-.3-4.3-.5-6.5 0-.5.2-1 .2-1.7.3-.2-1.6.6-2.8 1-4.2a22.7 22.7 0 0 1 26.2 27.2c-.3 1.7-.2 1.8 2 2.3.4-1.2 1-2.4 1-3.6A25.8 25.8 0 0 0 429 275c-2.8-2.1-5.7-3.9-9.1-4.5-2.8-.5-5.7-.6-8.4-.8l7.6-23.1c.6.1 1.5.2 2.4.5 3.4 1 6.8 2.2 10.2 3.4l12 3.9c2.2.8 2.2.9 2.2 3.4l-.2 10.4-.4 7.3-.1 6.1c0 1 .6 1.8 1.6 2.1l3.2 1v-2.9l-2-.6.2-7v-7.5c.2-3.4.5-6.7.5-10 0-2-.8-3.7-3-4.4l-1.5-.5-13.1-4.4-9-3-2-.5c-1.8-.3-3.4.6-4.1 2.4l-.6 1.8-9.6 29c-.3.8-.6 1.5-1.5 2a18.6 18.6 0 0 0-8.6 11.5 18 18 0 0 0 1 12.7c1.8 3.7 4.5 6.4 8 8.5 3.6 2.2 7.5 2.7 11.4 2.2 5.2-.6 9.5-3 12.7-7.4 1-1.4 1.3-1.5 3.1-1a2008.7 2008.7 0 0 1 12 4.1l.8.4-.5 1.2-.5 1.4c-.7 1.8-1.3 3.5-1 5.6a11 11 0 0 0 4.5 7.5c.9.5 1.8 1 2.8 1.3zm-20.7-30.4c-.6 1.1-1 2.3-1.3 3.5v1c.4 1.4.1 2.1-1.2 2.6a4.6 4.6 0 0 0-3 3.3c-.5 1.6-1 1.9-2.7 1.7-1.4-.2-2.7.4-3.7 1.3-1.7 1.6-1.7 1.6-3.6.5a4.5 4.5 0 0 0-4-.4c-1.6.6-2 .4-2.8-1a5 5 0 0 0-3.5-2.6l-1.9-.7c-.7-.5-.1-1.3-.2-2-.3-1.6-1-3.1-3-3.7l-.3-2c1.1-1.2 1.3-3.7.5-5-.7-1-.6-2 .3-2.7 1.6-1.2 3-2.4 2.4-4.7-.2-.8.9-1.8 2-1.8 1.8-.1 3-1 3.8-2.7.4-.9 1.3-1.3 2.2-1 1.9.8 3.5.7 5.1-.5.9-.7 2-.4 2.8.6 1 1.4 2.4 1.8 4.2 1.5.7-.1 1.4.3 2 .4.4 2.5 1.4 4.1 3.7 4.8 1 .4 1.3 1.1 1 2.2-.7 1.7 0 3.2 1 4.5.8 1.3.8 1.6.2 3z"/><path class="st0" d="M450 315a3.8 3.8 0 0 0-.1 3.8l.1.2v-4z"/></g><g><path class="st0" d="m408.7 186.3-.4 1.3a31 31 0 0 1-6 8.6c-.5.6-1.2 1.1-1.8 1.6l-1.8 1.7-1.8 1.4-1.6 1.4-1.6 1.4c-1 .7-1.9 1.3-2 2.7-.2 1-.7 2-1 3l-.7 2.5-.9 2.7-.6 2.3-1 3.2-1 3-1 3.2-.6 2.4-.9 2.7-.6 2.4-1 2.7c-.1.8-.3 1.5-.6 2.3l-.8 2.8-.7 2.2c-.7 1.5-1.3 3.1-2.2 4.5-.6 1-1.7 1.6-2.6 2.3-.8.8-1.7 1.6-2.7 2.2-.5.3-1.4.2-2 0-1.4-.2-2-1.3-2-2.6l-.1-6.2v-8.4l-.1-3.4V225s-.4-.2-.6-.1l-.6.3-1.3.7-3.4 1.8-2.2 1-3.1 1.8-2 1-3.3 1.7-2.1 1c-1.3.6-2.5 1.3-3.8 1.7-1 .2-2.2.3-3.4.1-1 0-1.8-.6-2.7-1l-3.2-1.5-3-1.6-3.2-1.5-3-1.7c-.7-.3-1.6-.5-2-1a4 4 0 0 1-1-2.5c0-2 1.6-2.8 3.1-3.2 2.1-.4 4.3-.5 6.5-.8h2c1-.2 2.1-.4 3.2-.4 2-.2 3.9-.4 5.8-.4 1.3 0 2.3-.5 3.2-1.4l2.3-1.9 2.5-2.2.5-.4h-.1l-1-.3-4.4-.8-3-.5-3.6-.7-1.8-.4-3.3-.6-2.2-.8c-.6-.3-1.2-2.2-.8-2.7l3-3.6c2-2.6 5-2.7 7.8-3.1l1.4-.1 6.2-.8 3.6-.5 3.6-.4 7.3-.9c2.4-.3 5-.5 7.4-1 .7 0 1.3-.7 1.9-1.2l1.4-1.1 2-1.7 1.3-1.1 2.3-2 1.7-1.3 2-1.8a35.5 35.5 0 0 1 5.7-3.6c1.9-.6 3.8-1.2 5.8-1.6 1-.2 2.2-.2 3.3-.2l3.7.1c1.2.2 2.2.8 2.9 2l.5.6.3 1.8zm-79.3 38.2-1 .4-.8.5.4.5.8.4 3.2 1.7 3 1.4 2.5 1.3 2.2 1.2 2.3 1c.7.3 1.4.5 2.1.4 1 0 2-.2 3-.6 1-.4 2-1 3-1.6l2.2-1 3.4-1.8 1.9-1 3-1.7 2.2-1 3.9-2c.8-.5 1.4-1.2 2.1-1.7.4-.3 1-.6 1.4-.6.4 0 1 .6 1 1 .2.6.1 1.4.1 2.1v8.5l.1 4.9v3.5l.1 5 .1 3.1V250h.3a46 46 0 0 0 2-1.7c1-1 2-1.7 2.7-2.7.6-1 .9-2.2 1.2-3.3l.5-1.9 1-2.7c.2-.8.3-1.6.6-2.3l.8-2.8.7-2.3.9-2.8.8-2.6.8-2.8.7-2.3.9-2.8.8-2.7 1-3.2.7-2.6.1-.2h-.3l-.5.5-1.7 1.5c-.5.5-2 .6-2.3 0-.6-1-.1-2 .9-2.6.6-.3 1.2-.9 1.7-1.4l2-1.6 1.4-1.1 1.8-1.5 1.7-1.4 2.3-2 2-1.5 1.8-1.7 1.8-1.6a24.8 24.8 0 0 0 3.5-4.5c.4-.8 1-1.5 1.2-2.3.2-.6.1-1.3 0-2-.1-.2-.8-.4-1.2-.4-.9-.1-1.8-.2-2.8-.1l-5 .6c-1.4.4-3 1-4.3 1.6-.9.4-1.7 1-2.4 1.5-.9.6-1.6 1.3-2.4 2L385 192l-2.3 2-2 1.6-2.6 2.2-2 1.6-1.8 1.7-1.8 1.4-2.2 2-2 1.5-2.3 2-2.3 1.9-2.6 2.2-2 1.6-2.5 2.2-2 1.6-2.2 2-2.4 1.8c-.9.7-1.4 1.8-2.8 1.8l-3.7.2-6 .4-3.3.2-4.8.5zm27.2-12.3.4-.1 1.4-1.2 2.2-1.9 2.6-2.2 2-1.6 2.2-2 2.4-1.8.2-.2v-.4l-3.5.4-7.5 1-7.3.8-3.7.5-3.8.4-3.4.6c-.5.1-1 .4-1.3.7l-2.4 2.4-.5.5.3.4 3.7.7 2.4.4 3 .6 2 .4 3 .6 2.5.4 3 .7z"/><path class="st0" d="M357.2 219.7c.4-.6.6-1.3 1-1.4.5-.2 1.3 0 1.7.4a10 10 0 0 1 2 2.2c.2.3.2 1 0 1.3-.4.7-1.1 1.2-1.8.6l-3-3.1zM373 212.3l-.7 1.4c-.7.5-1.4.4-2-.3-.7-.8-1.5-1.5-1.9-2.3-.2-.5 0-1.5.5-1.8 1-.7 1.7 0 2.3.9l1.8 2.1zM384.1 197.1c.3-.5.5-1.2.8-1.3.6 0 1.4 0 2 .3.7.6 1.3 1.5 1.9 2.3.1.2.2.5.1.8 0 .3-.3.7-.5 1-1.4.8-2-.3-2.7-1.1l-1.6-2zM365.8 218.5c-.3-.3-1-.7-1.4-1.2-.5-.6-1.1-1.3-1.4-2-.2-.4 0-1.2.4-1.4 1.2-1 1.9 0 2.6 1l1.3 1.6c.4.8 0 1.7-1.5 2zM383.8 203.4c-.4.5-.5 1-.9 1.3-.8.4-1.5.2-2.1-.6L379 202l-.2-.6c.1-.4.3-.8.6-1 1.3-1 2 .1 2.6 1l1.6 2zM375.1 204.4l1.5 1.2c.5.6 1 1.2 1.3 1.8.2.5 0 1.4-.2 1.7-1 .9-1.8.2-2.4-.7-.6-.8-1.2-1.4-1.6-2.3-.4-.8.3-1.3 1.4-1.7zM394.5 194.1c-.3.7-.4 1.2-.7 1.4-.7.7-1.5.6-2.1-.3l-1.8-2.3c-.2-.3-.2-.8 0-1 .4-.4 1.2-1 1.4-.9l3.2 3.1z"/></g><g><path class="st0" d="M207.6 179.1c0-.4-.2-.7-.5-1-.3 0-.5-.2-.8-.1h-.2l-.2.1-5.3 1.4v-.4l.1-.5v-.1l-.1-1.3a265 265 0 0 0-1.2-5.3l.2-.2.1-.2.3-.5a2 2 0 0 0 .2-.7l.1-.5v-.8l.1-.1v-1.2c-1-3.6-2-7.2-2.8-10.8l-.2-.8-.2-.7-.2-.3-.1-.3-.1-.3v-.1l-.2-.4-.2-.4v-.2l-.2-.1-.3-.6-.2-.4-.2-.2v-.2s0-.2-.2-.1V151.5l-.2-.1-.2-.2-.1-.2-.2-.3-.1-.2h-.2l.2-.1c.3 0 .5-.1.7-.3l.2-.1.3-.2.2-.2s.2 0 .2-.2l.2-.2.2-.3c.2-.1.2-.3.3-.4v-.2l.2-.4v-.4c.2-.1.1-.3 0-.4V146.8s.1-.1 0-.2c-.1-.9-.4-1.7-.6-2.6v-.2s0-.2-.2-.2v-.2a1 1 0 0 0-.2-.3l-.1-.1-.2-.3-.2-.2-.3-.2-.1-.1-.5-.3h-.2a.8.8 0 0 0-.5-.2H193.6c-.2-.2-.3-.1-.4 0h-.8l-4 1-1.5.4c-.2 0-.3 0-.3-.2s-.1-.3-.3-.4v-.2c0-.1 0-.2-.2-.3l-.1-.1v-.2l-.2-.2v-.1l-.1-.2-.3-.5v-.1l-.1-.1h-.1v-.1c0-.2-.2-.3-.3-.5l-.1-.3-.1-.1-.1-.1v-.1l-.3-.4v-.1l-.3-.4-.2-.5-.1-.2-.3-.5-.2-.3v-.1l-.3-.4-.1-.3-.2-.2v-.1l-.1-.3-.2-.2-.2-.2-.2-.3-.1-.1-.2-.1v-.1l-.1-.2-.2-.1-.1-.2-.2-.1-.1-.2-.3-.2-.1-.1-.2-.1-.1-.2h-.1l-.3-.3h-.1l-.2-.2h-.2l-.3-.2a1 1 0 0 0-.3-.2h-.2l-.2-.2h-.2l-.3-.2-.5-.1h-.2l-.1-.2h-.3l-.4-.1h-.2l-.1-.1h-.1c-.2-.1-.3 0-.4 0h-.2l-.3-.1h-1.5a2 2 0 0 0-.6 0c-.3.1-.5.2-.7.1h-.3v.1l-22.6 5.8h-.4l-.2.2h-.1l-.1.1-.4.1-.3.1-.2.1-.2.2h-.2a1.2 1.2 0 0 0-.3.2h-.1l-.2.2c-.2 0-.3.1-.4.3l-.3.1-.2.2-.3.3-.2.2h-.2v.2c-.2 0-.3.2-.3.2l-.2.2-.2.3s-.2 0-.2.2h-.1c0 .2-.1.2-.2.3l-.1.2-.1.2-.1.1-.1.2-.2.3v.2l-.2.1-.2.5v.2h-.1v.2l-.2.2v.2c-.2.2-.2.4-.2.5l-.1.5V144.8l-.2.4V146.4s-.1.2 0 .4c-.2.1-.1.3-.1.3V151c-.1.1 0 .3 0 .4v.8c-.1.1 0 .3 0 .4v.7c-.1.2-.1.3 0 .4v.6c0 .2 0 .3-.2.3l-1.4.4a476.4 476.4 0 0 0-5 1.4l-.2.2h-.2v.2h-.1s-.2.1-.2.3l-.2.2-.3.3-.1.3-.1.2v.3l-.1.3v.1c-.2.2-.1.3 0 .4v.8l.6 2.5a1.2 1.2 0 0 0 .2.4l.1.2s0 .2.2.3l.3.4.2.2.2.1c.2.2.4.4.7.4h.1l.3.2h.5c.1.1.3 0 .4 0h1V165.3l-.1.4v.5c-.2.2-.2.4-.2.5V167.6l.1.2v.7s0 .1 0 0v.6l.1.4.1.4v.4l2 8 1 3.7.2.9.1.2.1.2v.2h.1c0 .2 0 .3.2.3v.1l.1.2s0 .2.2.2l.1.2.3.3.1.2h.2v.1s.1.2.3.2v.1l.2.1.3.2.4.2h.1l.2.2v.2a96.3 96.3 0 0 1 1.6 5.4v.3l.4.7.1.1.1.2h.1l-2 .6-3.4.9h-.1c-.2 0-.5.1-.7.4v.1l-.2.4h-.1l.2 1h.2l.3.3h.1l.3.2H142.6l63-16.2.8-.2.2-.1.5-.2v-.1l.2-.1V179.7c.3-.2.3-.4.3-.6zM157 190.4v-1c.2-.1.1-.3 0-.4l-1-4.5 32.8-8.4.3 1.2.9 3.2c0 .2 0 .3.2.4V181.2l.3.3s0 .2.2.3l.1.2-25 6.4-8.7 2.2v-.2zm40-16.4 1.2 4.5v.1l-.1.3v.1c0 .2-.2.4-.3.5v.1l-.3.3-.1.1-.4.2h-.2l-.1.2h-.1l-1.8.5h-1.2l-.3-.1h-.1l-.3-.3h-.1c0-.2-.1-.2-.2-.3v-.1l-.2-.2-.1-.1-1.1-4.3 5.9-1.5zm-49.6 10.2-.2-.1H146.9a1 1 0 0 1-.4 0h-.2l-.3-.2-.3-.1h-.1v-.1l-.3-.1c0-.2-.2-.3-.3-.3l-.1-.1-.1-.2-.2-.2-.1-.2v-.2c-.4-.5-.5-1.2-.7-1.8l-.2-.9-.4-1.7-.3-1 .2-.1 1.3-.4 8.5-2.2h.2v-.1h.2l.1-.1.3-.1c.2 0 .2-.1.3-.2l.3-.3.2-.4.2-.4v-.1c.1-.1.2-.3.1-.4v-.7l-.3-1.1c0-.2 0-.4-.3-.5 0-.2 0-.3-.2-.4v-.1l-.3-.3-.3-.3h-.1a.9.9 0 0 0-.4-.4l-.1-.1h-.2l-.2-.2-.4-.2h-.2l-.1-.1-.3-.1h-.2v-.1h-2.4c-.2.1-.3.2-.5.1h-.5l-.2.1h-.8v.1h-1l-.6.1h-.3a2 2 0 0 0-.6.1h-.9l-.4.1h-.5a1 1 0 0 1-.4 0l-.7.1-.3.1-.1-.1v-.1l-.1-.3V166.4l.1-.2v-.7l.1-.3.1-.2v-.4l.2-.3v-.1l.1-.3.2-.5v-.2l.1-.2.1-.3.1-.2.2-.3v-.1l.1-.4H142.6l.3.1h.3l.1.1h.2s.1 0 0 0l.2.1h.4l.4.1.3.1H145.7l.3.1h1.2s.1-.1.2 0h.3l.5-.2 36.8-9.4.4-.1c.2 0 .3 0 .4-.2l.2-.1.3-.1.3-.1v-.1c.3 0 .4-.1.5-.2l.2-.2.2-.1.2-.2c.2 0 .3-.1.4-.3h.1l.3-.3.4-.3.1-.1.3-.3.3-.2.2-.2h.2l.3.3h.1l.3.3.4.3.3.2.1.1.4.4.1.2h.1v.1l.2.2.2.2.2.2s0 .2.2.2l.2.3.2.3c0 .1 0 .2.2.3l.2.3.1.2v.1l.3.4.1.4-.1.1-.3.1h-.2c-.1 0-.3.1-.3.3h-.2c-.1 0-.3 0-.4.2l-.5.2c-.1 0-.3 0-.4.2l-.4.2c-.2 0-.3 0-.4.2l-.5.1-.4.3-.4.1c-.2 0-.3 0-.5.2l-.4.2c-.1 0-.3 0-.4.2l-.4.2-.4.1-.4.2-.4.2-.5.2-.4.2c-.2 0-.3.2-.4.3h-.2v.1h-.2l-.1.2-.4.3v.1l-.4.4-.1.1-.1.2-.1.2-.2.3V160.9l-.1.2-.2.4V161.9c0 .1-.1.3 0 .4v1.3l.2.6c0 .3.3.6.4.8l.6.5.3.2h.3l.3.1h.7c.6 0 1-.1 1.5-.3l.5-.1 6-1.6 2.4-.5.4 1.3.9 3.5v1.6c0 .1 0 .2-.2.3v.3l-.1.1-.1.2-.1.2-.2.2-.3.2-.2.2-.4.3h-.1l-.6.2-47.5 12.2h-.1l-.4.1h-.2zm-5.8-13.4h.4l.5-.1h1l.4-.1h.5l.4-.1h.6l.3-.1H147.1l.2-.1h.9l.2-.1h.8l.4-.1h1.4l.2.1.4.3.3.2.1.2.2.5.1.4-9.9 2.5h-.1l-1-3.4h.3zm-.1-13.5v.2l-.1.1c0 .1 0 .2-.2.3v.2l-.2.4-.1.2v.2l-.1.2v.1l-.2.1v.2l-.2.4V160.2l-.2.2v.2l-.1.1v.2l-.3.4v.3c0 .2-.2.3-.4.3l-.6.2a7 7 0 0 1-.7.1h-.6c-.4 0-.5 0-.5-.2v-.1c-.3-.2-.3-.5-.4-.8v-.4l-.3-1v-.5l.2-.4c.2-.3.5-.4.9-.5l3-.7 1.1-.3zm2.5.3v-.4h.1v-.2l.1-.3v-.5l.1-.4v-.8c.2 0 .1-.2 0-.3v-.2l.1-.3V146.2l.1-.3v-.5c.2 0 .1-.2.1-.3l.1-.3v-.2l.2-.3v-.3l.2-.4.1-.2.1-.2.1-.1v-.1l.1-.2.3-.3.2-.4c.2 0 .2-.2.3-.3v-.1h.1l.1-.1.3-.3.2-.2.1-.1h.1c.2 0 .2-.2.2-.3h.1l.3-.2.3-.2.3-.2.6-.2 1.6-.5 21.7-5.5 1.4-.3H174.3a11.2 11.2 0 0 1 .7 0h.4l.1.1h.4l.3.1h.1l.3.1.3.1.3.2.4.2h.2l.3.3.4.1.1.1.2.1c0 .2.3.3.4.4 0 .2.3.3.4.4l.1.1.2.3h.1v.1l.2.2.2.3.2.3.2.3v.2l.3.3v.2l.3.4v.1c0 .2.1.3.3.4l.2.4.3.6.1.3h.1v.1l.1.1v.2h.1c0 .1 0 .3.2.3v.1l.3.4a1.6 1.6 0 0 0 0 .2l.3.3v.2c0 .1.1.3.3.3v.2l.3.6h.1v.2l.2.2c0 .1 0 .3.2.4l.1.2s0 .2.2.3l.3.4.2.5.2.1v.1l.3.4.2.1v.2l.3.2.3.3.2.2.2.1.1.2.5.3.1.2h.1v.1l-.5.5h-.1l-.3.3-.1.1-.3.2-.3.3-.4.3h-.2l-.1.1-.2.1c-.1 0-.3 0-.4.2l-1 .3h-.4v-.1c0-.1 0-.3-.2-.4l-.1-.2-.3-.4-.1-.1-.3-.3c0-.1 0-.2-.2-.2 0-.2-.2-.3-.3-.3l-.2-.2-.2-.1-.2-.2-.2-.1-.5-.3-.1-.1-.3-.2h-.2l-.2-.1h-.2l-.1-.1H179.3l-.2-.1-.4-.1h-.5l-.2-.1h-1.7l-.2.1-.6.2-.4.2c-.2 0-.3 0-.5.2l-.3.1-.2.2-.3.2-.1.2c-.3 0-.4.2-.5.4l-.2.2h-.1l-.1.1-.2.2-.3.4-.2.3-.2.3-.2.3v.2l-.2.2-.1.4v.1l-.2.6v.3c-.1 0 0 0 0 .1l-.1.2v.2l-.1.3v.8h-.1l-4.2 1.2a13135 13135 0 0 1-20.4 5h-.8v-.1h-.7l-.3-.2h-.4l-.3-.1h-.4l-.1-.1v-.3l.2-.3.1-.3.1-.2.2-.3v-.4zm30.3-6.7c.3-.1.4-.3.4-.5h.1c.2 0 .3-.2.4-.3l.2-.1.3-.3H176l.1-.1c.2 0 .3 0 .4-.2h.8l.2-.1h1l.2.1H179l.2.2h.1l.2.1.2.2.4.2h.2v.2l.2.2.4.4.1.1.2.2h-.2l-4.3 1.2-3 .7-.1-.3v-.3l.2-.3v-.4l.1-.2.2-.2.1-.3.1-.2zm21.5 9.8-10 2.5V161.6h.1a14.3 14.3 0 0 1 .4-.7l.3-.1.2-.2.3-.1.5-.3H187.9l.1-.1c.2 0 .4-.1.5-.3H188.8l.5-.4h.4l.5-.3.3-.1h.2l.2-.2h.1l.2-.1.3-.1c.1 0 .3 0 .3-.2h.2l.3-.2.2-.1h.1l.2-.1.2-.1.6-.3h.2l.2-.1.3-.2h.1l.7-.3c.2 1.2.6 2.4.9 3.5h-.2zm-1.8-16.4-.1.1s0 .2.2.3l.5 2.2V147.2l-.2.4c-.2.2-.5.4-.9.4l-1.1.3h-.3l-.2-.2-.1-.1h-.1l-.1-.1-.1-.2-.5-.2v-.2a1 1 0 0 0-.6-.3v-.1a1 1 0 0 0-.5-.4l-.2-.1-.3-.3-.2-.1v-.1h-.2c0-.2-.1-.3-.2-.3l-.1-.1-.3-.2.5-.2 2.2-.6 1.8-.4h.8l.1.3.2-.1zm-20-10.8zm-19.4 56.2v.5l-.1.1v.1h-.2v.4h-.1l-.3.4-.3.2-.4.1c-.2.2-.5.3-.8.3l-.5.1-.5.2H150.1a1 1 0 0 1-.3-.1l-.3-.2h-.1l-.1-.1-.1-.2h-.1a1 1 0 0 1-.2-.4l-1-3.4-.2-1 5.8-1.5.2.6.9 3.3V189.7zm-13.7 5.7v.2-.2z"/><path class="st0" d="M153.7 177.5c.2.3.4.5.7.6H155.3l31-7.9c.2 0 .7-.2 1-.6v-.1c.2-.3.3-.5.2-.8v-.2l-.4-.5-.2-.2c-.3-.1-.5-.2-.8-.1h-.4l-18.7 4.9-12.2 3.1h-.2c-.3.1-.6.2-.8.6v.1l-.2.6.1.5zm.1-.2zM150.9 179.3c.3-.1.8-.3 1-.7.2-.1.2-.3.2-.4.1-.1.1-.3 0-.4v-.2c0-.2 0-.4-.3-.5l-.2-.2c-.2-.1-.5-.3-.8-.2l-2.2.6-.7.2-1.3.3h-.2c-.3.1-.6.2-.8.5-.1.1-.3.3-.2.5-.2.3 0 .8.2 1 0 .2.2.3.3.3l.3.2h.7l2.3-.6 1.7-.4zM189 168.3v.3c.1 0 .1.2.3.2l.4.2h.3l.3.1h.2l2.7-.7 1.3-.3c.4-.1.8-.3 1-.7.2-.1.3-.3.3-.5v-.3c0-.2 0-.4-.2-.5l-.3-.3-.2-.1-.6-.2h-.2l-.2.1-4.2 1c-.3.1-.6.2-.8.7-.2.2-.3.4-.2.7l.1.3zM178.6 166v.6l.2.2.1.2.4.2.3.1h.5l.7-.5v-.1l.1-.2s.1-.2 0-.4h.1v-.3l-.2-.8-.1-.5-.2-.8-.1-.2-.1-.1a.9.9 0 0 0-.9-.6h-.1c-.3-.2-.5 0-.6 0l-.3.3-.1.1c-.3.2-.4.5-.3.8l.6 2zM157.3 169.8l.1.6.2.5v.5l.7 1 .6.2h.2l.6-.2.2-.1.2-.3.2-.6-.2-.6-.6-2-.2-.4v-.1l-.3-.1-.7-.1c-.3 0-.8.5-.8.5-.2.2-.3.4-.2.7-.1.1 0 .3 0 .4zM168.2 169v.3l.3.2c0 .2.1.3.3.4h1.1c.2 0 .4-.1.5-.4v-.1l.2-.4v-.1s.1-.1 0-.2c-.1-.9-.4-1.7-.6-2.5v-.2l-.1-.1v-.1l-.3-.2h-.2l-.8-.2c-.3.1-.5.3-.7.6 0 0-.2.2-.2.5v.3l.5 2.3zM173.1 166.8a7.9 7.9 0 0 0 .2.7c0 .2 0 .5.3.6l.2.2.1.2H174.2l.4.1h.5l.2-.1s.2-.1.2-.3l.2-.3c.1-.2.2-.3.1-.5l-.2-1v-.2l-.2-.4-.2-.8v-.1c0-.1 0-.3-.3-.5h-.2c-.1-.2-.3-.3-.5-.3h-.7l-.3.3-.2.3c0 .1-.2.2-.1.3v1l.2.8zM162.7 169l.2.7a33.9 33.9 0 0 0 .4 1.3h.2v.1l.6.2h.2l.5-.2c.2 0 .3-.1.3-.2h.1c0-.1.2-.2.1-.3v-.1l.1-.4v-.5l-.3-1v-.4l-.4-.9-.3-.3h-.1l-.5-.2c-.2-.1-.5 0-.7.1l-.5.6v.1c-.1.1-.2.3-.1.5l.2.8zM159.6 143.3l.5.2.3.1h.2l4.6-1.2.2-.1.1-.2.2-.1c.3-.2.3-.5.3-.7v-.1c0-.4-.1-.9-.7-1.1-.2-.1-.4-.2-.7-.1l-2.7.7a153 153 0 0 0-2.4.7 3.6 3.6 0 0 0-.3.5l-.1.7c0 .3.3.5.5.7z"/></g><g><path class="st0" d="m251.4 86.9-.4.6-.8.5c-1.3.3-2.5.5-3.8.6a9 9 0 0 1-2.5-.2l-2.7-.8c-.4-.2-.7-.5-1.1-.5-.3 0-.6.3-1 .4-.5.3-1.1.8-1.8 1-1.1.4-2.3.9-3.6 1.1-.8.2-1.8.2-2.7.2h-1.2l-3-.6c-.6-.2-1.2-.6-2-.8-.1-.1-.5.2-.8.3l-1.4.8-2.1 1-.8.2c-1.1.1-2.3.4-3.4.4-.9 0-1.8 0-2.6-.2L211 90c-.4-.2-.8-.5-1.2-.5-.3 0-.6.2-.9.4l-1.4.8-2.1.9-.8.2-3.4.5c-.9 0-1.8 0-2.7-.3-1.1-.2-2.3-.5-3.4-1-.8-.5-1.1.1-1.6.4l-1 .5a85 85 0 0 1-3 1.2l-3.8.5-1.8-.2c-.5 0-1-1.3-.7-1.8.4-1 1.3-.8 2-.7.5 0 .5-.1.5-.5V88a19.6 19.6 0 0 1 7.5-11c.5-.4.7-.8.7-1.3v-2a33.5 33.5 0 0 1 .9-4.2l.5-1.8-.4-.5-2.6-2-2-1.5L188 62c-.5-.5-1-1-1.7-1.4-.9-.5-1-2-.2-2.7l1-.4 4.8-.3c.6 0 1.2.3 1.7.5l1.8.8 2.4 1.2 1.8.8 1.2.6h.4l2.2-.5 2.8-.7 3.2-.7 3.2-.7c1.5-.3 3-.6 4.5-.7l3.6.3c.8 0 1.7.1 2.5.3.8 0 1.5.2 2.2.4.5 0 .9 0 1.4.2l2.1.4 1.8.3 2.4.5 1.8.4c.6 0 1.3.3 1.9.2.7 0 1.4-.4 2.1-.7l1.4-.4 2.8-1 1.3-.4c.8-.2 1.7-.5 2.6-.5.5 0 1.2.5 1.6 1 .3.4.4 1 .4 1.6 0 .6-.3 1.2-.5 1.8l-.6 1.2-.9 2-.6 1.5-.9 2-.7 1.5-.8 1.8-.8 1.7-1 1.8-.7 1.5-1.3 2.3-1.3 2.1-1.6 2.2-1.7 2.1v.1l-.3.4h.4l2-1c.7-.4 1.3-1 2-1.1.4-.1.9.3 1.3.4l1.7.7 2.3.5h2.5l2.7-.6c.3 0 .7.5 1 .7l.1.1v.8zM188 89.8c0 .7.3 1 1 .7a13.1 13.1 0 0 0 4.3-2.2c.5-.3 1-.5 1.5-.3l1.2.7 2 .6 3 .3a11 11 0 0 0 5.2-1.2l2.2-1.3c.4-.3.9-.6 1.4-.3l1.3.6 2 .6c1 .2 1.9.4 2.8.4 1.9 0 3.7-.3 5.4-1.2a21 21 0 0 0 2.2-1.4c.6-.4 1-.5 1.7-.2a12.7 12.7 0 0 0 3.2 1.2c.8.2 1.6.6 2.4-.2l1.8-1.5a33 33 0 0 0 3.6-4.4l1.4-2.3.9-1.4.8-1.6 1-2a133 133 0 0 0 1.7-3.4l.7-1.6.8-1.8.7-1.6.9-1.9.8-2 .3-.4-.2-.2-.8.3-2 .7-1.5.5-2.3.7-1.2.5-2.3.7-1.3.5-2.2.7-1.3.5-2.3.8-1.3.4-2.2.8-1.3.4-2.3.8-1.3.4-2.1.8-1.3.4-2.2.8-1.4.4-2.1.8-1.4.4-2.1.8-1.3.4-2.7 1c-.5.1-1 .2-1.3.4l-2 .7-1.4.5-1.9.9-1.5.8-1.7 1.3c-.5.4-1.1.8-1.6 1.4a23.8 23.8 0 0 0-3.2 4.7l-.7 1.9-.5 2.2zm27.6-29.3c-.5 0-1.1.2-1.8.4l-2.3.5-3.4.7-2.7.6-1 .2-3.6 1c-.6.2-1.3.3-1.6 1-.3.9-.8 1.6-1 2.4l-.9 2.3-.7 3.4-.2 1 .2.8 1-.4 2-.7 1.2-.5 2.1-.7 1.3-.5 2.1-.7 1.4-.5 2-.7 1.4-.5 2.3-.7 1.3-.5 2.2-.8 1.3-.4 2.6-1 1.5-.4 3.1-1.1 2.3-.8 3.3-1 .3-.3-3.2-.7a66.2 66.2 0 0 0-9.2-1.4h-3.3zm-24.7-.7h-1l-.1.1v.1l2.1 1.7a305.6 305.6 0 0 0 4.5 3l.9-1.7c.1-.3.5-.6-.2-.7l-.6-.3-1.5-.7-1.8-.8c-.8-.4-1.5-1-2.3-.7zM251.8 92.3c-.1.2-.2.5-.4.6-.1.2-.4.5-.6.5l-4.2.6c-.7.1-1.5 0-2.3-.2l-2.5-.7c-.5-.1-.9-.5-1.4-.6l-.7.4-1.4.8-2.1 1-.8.1-4 .5a9 9 0 0 1-2.3-.2l-2.6-.8c-.4-.2-.8-.5-1.2-.5-.3 0-.5.2-.8.4l-1.8 1-2.4.9-4.2.4a16.1 16.1 0 0 1-4-.7c-.7-.3-1.3-.7-2-.8l-1 .5-1.5.9-2.4.9-2.2.4h-2.8c-1 0-2-.3-3-.6l-2.2-.9-.8.4-1.4.8-2 1-.8.2c-1.4.1-2.8.4-4.2.4-.6 0-1.4 0-2-.4-.2-.2-.3-.9-.3-1.3 0-.3.4-.7.7-.8l2.5-.1a28.2 28.2 0 0 0 4.1-.9c.8-.3 1.6-.8 2.3-1.2.6-.3 1-.8 1.7-.9.4 0 1 .4 1.5.6.5.3 1 .5 1.6.6l2.8.5 2.2-.1a16 16 0 0 0 4.1-1.3c1-.4 1.6-1 2.5-1.5.3-.1.8 0 1.3.2s1 .6 1.6.7l2.5.7 1 .1 3.3-.3a16.8 16.8 0 0 0 4-1.7c.5-.2.8-.7 1.3-.8.4-.1 1 0 1.4.1l2 .8c1 .3 2 .6 3 .6l3.7-.3 1.6-.5 2.3-1.2c.5-.3 1-.8 1.5-.9.4 0 1 .3 1.4.5l1.4.6 2.4.5 1 .1 2.8-.2c.5 0 .9-.4 1.3-.4.6-.1 1 .2 1.3.7h.1l.1.8z"/><path class="st0" d="M207 82.3c-1.5.2-2.8-1-2.9-2.4-.1-1.5 1-2.8 2.4-2.9a2.7 2.7 0 0 1 3 2.4c.2 1.3-.8 2.9-2.5 3zM214.7 75c1.5-.3 3 1.1 3 2.6 0 1.2-1 2.6-2.6 2.7-1.5.1-3-1-3-2.8 0-1 1-2.5 2.6-2.5zM222.7 73c1.5-.2 3 1 3 2.7 0 1-1 2.5-2.6 2.6a2.7 2.7 0 0 1-2.9-2.6c0-1.2.9-2.7 2.5-2.8z"/></g><g><path class="st0" d="M8 134c0-1.6-1.2-2-2.2-2.6-1.6-.9-2-.7-2.6 1.2 2.4 2.1 3.4 2.4 4.8 1.4zM3.6 99.2l-3.6-2v3.3l1.6 1-1.6 2.7v6.1l4.5-7.7c1-2 1-2.3-1-3.4z"/><path class="st0" d="M0 87.9v3l21.1 12.3 2.2 1.3-1.3 2.1-2.3-1.2-6.3-3.6c-1.5-.8-2-.7-2.8.7l-.1.2L2 117.2c-1 1.8-.8 2.4 1 3.5l10.7 6.2 1.8 1.1c-.5 2-1 2.3-2.1 1.7L0 121.8v3.6l12.9 7.4c-.3 2-.9 2.4-3 2.8L0 137.5v2.8l10-1.8c1.1-.3 1.9 0 2.4 1 1.5 3.6 1.5 7.1 0 10.7l-.4.2c-1-.3-7.6-4-12-6.6v3.1l3.4 2c2 1.2 2.8 2.8 2.1 5-.9 3.1-3.1 4.8-5.5 5.1v2.7a9.2 9.2 0 0 0 8.3-8.5c0-.4.3-.7.5-1.2l3 1.7c1 .5 1.9.3 2.4-.8.5-1.2 1-2.5 1.3-3.8 1.2-3.5.8-7-.6-10.3-.5-1.3-.5-2.2.2-3.4 2-3.4 4-6.6 5.4-10.2 1.5-3.9 1.9-7.8 1-11.8-.2-1.3-.6-2.5-1-4l2.3.7c1.8-1.8 2.8-4 4-6.5l-2.8-1.7-24-14zm18.7 34.3c-.2 1.2-.6 2.4-2 3.2-1-.7-2.3-1.3-3.5-2l-7-4c-1.2-.8-1.5-1.4-.9-2.5l7-11.9.3-.3c1.9.5 3.4 1.4 4.4 3.3 2.2 4.6 2.9 9.3 1.7 14.2z"/><path class="st0" d="M0 128.1v2.7c.8-.8 1.4-1.6.6-2.3l-.6-.4zM0 149.8v4.8c1-.5 1.8-1.9 1.5-3-.3-.9-.8-1.5-1.5-1.8z"/></g><path class="st0" d="M450 159a7 7 0 0 1-4.9-1.2c-1.4-.9-2-2.3-2.5-3.7-1.1-3.2 1.2-7 3.8-8 .9-.3 1.8-.5 2.7.1l.9.6v-3.1l-3.9-2.5 1.8-.6 2.1-.4v-2.8l-4.6.8-9.8 1.8-.6.1v-.3c-2 0-4-.7-6-2-4.2-2.8-8.7-5.2-13.1-7.7l-2-1.3c.8-3.9-.6-6.8-3.2-9.4-1.5-1.4-3.5-1.7-5.5-2-.4-.1-1-.1-1.3-.3l-10.7-6.2-.4-.3 8.6-14.6-.3-.4c.6.2 1.3.3 1.8.6l24.2 14 .6.5-.9 2-7 12c-1 2-1 2.3.8 3.3l12.3 7.2 2 .8h.2l8.4-14.4 6.5 3.8v-3.6L445 119l1-2 3.9-6.7v-6.1l-15 26v-.3l-1.5 2.5c-3.5-1.9-7.3-4.1-11.1-6.4l12.6-21.8v.3l5.4-9.5 9.6 5.5v-3.4l-15-8.6-2.3-1.3a9.1 9.1 0 0 0-12.4 2.2l-4.5 7.7-1 2c-1.8-.1-9.1-4.1-12-6.4l.5-1.2c1.6-2.7 3.1-5.5 4.8-8.2 1.4-2.4 3.4-4.2 5.9-5.5 3-1.5 6.2-1.6 9.5-1 2.5.4 4.7 1.7 6.8 2.9l4.7 2.7 15 8.6v-3.1l-15-8.7-2.6-1.4c-1.6-1-3.3-1.8-5-2.6-2.8-1.5-6-1.8-9-1.4-5.6.7-9.8 3.5-12.6 8.2l-18.4 31.8-.4.7c-.6 1.2-.5 1.6.7 2.4l2.7 1.5 6 3.5c-2.4 6.7.1 10.8 3.4 12.8 3.4 2.2 8.4 2.6 13.3-3l1.8.9c4.8 2.8 9.7 5.4 14.4 8.4 1.9 1.2 3.7 2 5.7 1.8v.1c1.4-.3 2.9-.5 4.3-.9 2.2-.5 3.6.6 5.2 2-2 1.5-3.7 3.3-4.5 5.7a9.3 9.3 0 0 0 10 12v-2.8zm-32.5-59.6 4.4-7.6a6.8 6.8 0 0 1 9.3-2.5l3.8 2.2 3 1.8-3 5.3v.2l-5.2 9-12.8-7.3.5-1zM390 114.7l1-1.8c2.4 1 8 4.4 9.2 5.5l-1.7 1.5-8.5-5.2zm16.6 18.5c-4 1-7-.4-8.2-4.7-1-3.6.2-6.8 4.7-8 3.9-1.2 7.1 1 8 4.6 1 4.3-1 7-4.5 8z"/><path class="st0" d="M450 149.8c-.5-.1-1-.2-1.6 0-1.6.4-2.3 1.7-1.9 3.3.3 1.1 1.8 2 3 1.7.1 0 .3 0 .5-.2v-4.8zM450 128.1c-1.4-1-2.9-1.7-4.4-2.5-.5-.2-1.4-.1-1.7.7-.3.8.2 1.2.7 1.6l5.3 3 .1-.1V128z"/><g><path class="st0" d="M314.1 441.1c0-3 2.4-5.2 5.3-5.2 3 0 5.3 2.3 5.2 5.3 0 2.9-2.3 5.2-5.2 5.2-3 0-5.3-2.3-5.3-5.3zm5.2 2.7c1.4 0 2.7-1.1 2.7-2.6a2.6 2.6 0 1 0-2.7 2.6zM345.7 439.8h-2.5v-2.6h2.5v2.6zM295.6 439.8H293v-2.6h2.5v2.6z"/><path class="st0" d="M281.8 450c-.2-.5-.1-1 .3-1.4l6.4-6.4 1.8 1.8s0 .2-.2.3l-5.7 5.7h3.8l4.6-4.6c.6-.7 2.1-.7 2.8 0l4.6 4.6h4l-6-6.1 1.6-1.7 4.7 4.7c.2.1.3.3.3.5v2.6h2.7v-5.4l1.8.8c-.8 1.6-.8 1.6.5 3l1.7 1.6h6.2c-1-2.7-1-2.6-3.6-1.3l-2.3-2.3.7-1.2c.5-1 .2-1.7-.8-2-1.5-.6-1.5-.6-1.5-2.1v-1c-.1-.5.1-.7.6-.7l.7-.2c1.2-.3 1.5-1.1 1-2.2l-.7-1.1 2.4-2.3 1.1.7c1 .5 1.8.1 2-.9.2-.1.2-.3.2-.5 0-.8.6-1.1 1.3-1h.5c1.6 0 1.6 0 2 1.5.4 1 1.2 1.4 2.1.9l1.3-.8 2.3 2.3c-1.4 2.9-1.4 2.9 1.6 3.8v2.7c0 .2-.3.4-.5.5-.2.2-.6.2-.9.3-1.1.3-1.5 1.1-.9 2.2l.7 1-2.4 2.4c-1.9-1.1-2.7-1.9-3.6 1.3h6.3l1.7-1.7c1.3-1.3 1.3-1.3.5-3l1.8-.8v5.6h2.6v-2.7l.2-.4 4.8-4.8 1.7 1.7-6.1 6.1h4l4.6-4.6c.8-.7 2.2-.7 3 0l4.5 4.6h3.8l-6-6 1.8-1.8 6.5 6.5c.5.4.6.9.4 1.3h2.6a4 4 0 0 0-1.1-3.2l-6.9-7a2 2 0 0 1-.5-1.3c0-4-2.8-6.8-6.7-6.7-.6 0-1-.2-1.4-.6l-6.8-6.8c-2.3-2.1-6-1.2-6.7 1.7a4 4 0 0 0 1.2 4l6.8 6.9c.5.4.7 2 .3 2.5l-4 4c-.2-1.4-.7-2.5-1.8-3-.7-.4-.9-.9-.8-1.6 0-1-.3-1.6-1.3-1.8l-.5-.2c.8-1.6.8-1.7-.4-3l-2.3-2.2c-1-1-1.8-1.9-3.2-.6-.7-1.9-.7-1.9-2.6-1.9h-3c-2 0-2 0-2.8 1.8-.8-.4-1.5-1-2.4 0l-3.6 3.5c-.5.6-.6 1.2-.2 1.8l.3.7c-1.7.6-1.7.6-1.8 2.4 0 .3-.2.7-.5.9a4.3 4.3 0 0 0-2.1 3.2l-3.6-3.6c-.8-.8-.8-2.2 0-3l6.7-6.7c1.2-1.2 1.6-2.5 1.2-4.1-.9-3-4.5-3.8-6.7-1.6l-6.8 6.8a2 2 0 0 1-1.3.5c-4 0-6.9 2.8-6.8 6.8 0 .4-.2 1-.5 1.3l-6.8 6.8c-1 1-1.4 2-1.2 3.3h2.7zm62.8-15.6a4 4 0 0 1 4 4c0 2.1-1.8 3.9-4 3.9a4 4 0 0 1-4-4 4 4 0 0 1 4-4zm-8.5-2.7-3.5-3.5c-.6-.6-.7-1.4-.2-2 .6-.5 1.4-.5 2 .1l6.4 6.4-1.9 2-2.8-3zm-33.4-3.7 1.8-1.8c.6-.5 1.2-.5 1.8 0 .6.6.6 1.3 0 1.9l-6.5 6.4-1.8-1.8 4.7-4.7zm-8.5 6.4a4 4 0 1 1 0 7.9 4 4 0 0 1 0-7.9z"/></g><g><path class="st0" d="M328.6 16.2a9.2 9.2 0 1 1-18.4 0 9.2 9.2 0 0 1 18.4 0zm-2.6 0c0-3.6-3-6.6-6.6-6.6a6.5 6.5 0 0 0-6.6 6.6c0 3.7 2.9 6.6 6.6 6.6 3.6 0 6.6-3 6.6-6.6zM311.5 22.9v2.5h2.6v2.7h-4c-.8 0-1.2-.5-1.3-1.2v-4h2.7z"/><path class="st0" d="M324.7 28v-2.5h2.6v-2.6h2.6v4.2c0 .3-.7.9-1 1h-4.2zM330 9.6h-2.6V7h-2.7V4.4h4.3c.4.1.9.7.9 1.1v4.1zM314 4.4V7h-2.5v2.6H309V5.5c0-.7.5-1.1 1.2-1.1h4zM293 37.4h2.6v2.5H293v-2.5zM343.2 39.9v-2.5h2.5v2.5h-2.5zM315.3 1.2c0 1.8 1.3 1.9 2.7 1.8h3c1.9 0 1.9 0 2.6-1.9 1.3 1.3 2.2.5 3.1-.5l.6-.6H321v.3h-3.1l-.2-.3h-6.2l.6.6c1.4 1.4 1.4 1.4 3.2.6zM281.8 3.3c1.6.5 3 .1 4-1l2.4-2.3h-3.8l-.2.2-.3.3c-.6.5-1.2.5-1.8 0-.2-.2-.3-.3-.3-.5H279l.1.3a3.7 3.7 0 0 0 2.7 3zM355.3 3.5c1.7.3 3.3-.7 4-2.2.3-.4.4-.8.4-1.3h-2.6c0 .2-.2.3-.4.5-.5.6-1.2.6-1.7 0l-.6-.5h-3.8l2.2 2.2c.7.6 1.6 1 2.5 1.3z"/><path class="st0" d="M357 23.8a3.8 3.8 0 0 0-4 1l-7 6.9c-.7.8-2.1.8-2.9 0l-8.6-8.6a2 2 0 0 1-.5-1.3V5.4c0-.4.2-1 .5-1.3l4-4.1h-4l-.6.6V0h-2.6v22.7a11.8 11.8 0 0 1-23.8.3V0h-2.7v.6l-.6-.6h-4l4.1 4.1c.3.3.5.8.5 1.3v16.4c0 .4-.2 1-.5 1.2l-8.7 8.7c-.7.8-2.2.8-2.9 0L286 25c-1.8-1.8-4.2-1.8-5.8-.2-1.7 1.6-1.6 4 .2 5.8l6.7 6.7c.3.3.5.9.5 1.3-.1 4 2.8 6.8 6.8 6.8.4 0 1 .2 1.3.5l6.8 6.8c1 1 2.2 1.5 3.6 1.2a3.8 3.8 0 0 0 3-2.8c.5-1.5.2-2.8-1-4l-6.9-6.9-.4-1.2c-.3-1 .2-1.6.9-2.1l2.2-2.2 3.5-3.6c3.1 4 7 6.2 12 6.2s9-2.2 12-6.2l6.1 6.2c.8.8.8 2.2 0 3l-6.7 6.7c-.6.6-1 1.5-1.3 2.3-.4 1.7.4 3.4 2 4.2 1.5.8 3.3.6 4.6-.6l7-7a2 2 0 0 1 1.3-.5c4 0 6.9-2.8 6.8-6.7 0-.7.1-1 .6-1.5l6.7-6.7c1-1 1.5-2.2 1.2-3.6a3.8 3.8 0 0 0-2.7-3zM288.6 35l-6.6-6.5c-.5-.6-.5-1.3 0-1.8.6-.6 1.3-.6 1.8-.1l6.6 6.6-1.8 1.8zm5.6 7.7a4 4 0 1 1 0-7.9c2.2 0 4 1.8 4 4s-1.8 4-4 4zm11.9 6c.7.8.8 1.6.2 2.2-.6.6-1.3.5-2.1-.3l-6.2-6.2 1.8-1.8.5.4 5.8 5.8zm-.3-19.7-6 6-1.7-1.8 7-7c.4.7.6 1.4.9 2.2l-.1.6zm27.2 0-.2-.6.8-2.2 7 7.1L339 35l-5.9-6zm1.3 22c-.6.5-1.3.4-1.8-.1-.6-.6-.6-1.3 0-1.8l6.5-6.5 1.7 1.9-6.4 6.4zm10.3-8.3a4 4 0 0 1-4-3.9c0-2.2 1.8-4 4-4a4 4 0 1 1 0 8zm12-14-6.4 6.3-1.7-2 6.4-6.3c.6-.6 1.4-.6 1.9 0s.4 1.3-.2 2z"/></g></svg>