<svg xmlns="http://www.w3.org/2000/svg" width="971" height="363" viewBox="0 0 971 363"><g fill-rule="evenodd" clip-rule="evenodd"><path fill="#DDE2E8" d="M59.2 113.3L3 310.3s-16.2 35.2 31.3 35.2h270.5c16.9 0 37.5 0 42.6-27l56.8-199.3c.9-2.4 2-6.4 1.8-10.9.1-3.6-.5-6.6-2.2-9.2-3.6-7-12.4-12.8-31.7-12.8H248.9l13.8-44.8a20 20 0 0 0 14.8-20c0-10.6-9.4-21-21-21s-21 12.7-21 21c0 8.2 1.8 9.5 4.7 13.1l-15.8 51.7H101.9c-17 0-37.6 0-42.7 27z"/><path fill="#FFF" d="M166 317.7l-22.8-77.8c27-8 42.3-24.4 50.9-54.7l3-10.6c12.3-43.3-5.6-61.3-55-61.3H90.6L32.4 317.7H69l20.5-72h13.6l20 72H166zM98.8 212l18.5-65H133c28.5 0 30.6 10 25.1 29.5l-2 6.9c-5.5 19.3-15.6 28.6-42.1 28.6H98.9zM363.2 150.1l-7.2 26.4h-33.8c5.7-20 4.1-31.1-24.3-31.1-26.6 0-34.8 11.1-40.3 30.5L235 255.3c-5.5 19.4-3.6 30.5 23 30.5 26.4 0 36.3-11.1 42-31.3h34.4l-5.8 21.3c-14.8 29.6-39.9 42.4-80 42.4-48.5 0-62.8-18.8-50.8-61l23.7-83.1c12.3-43.3 36.2-61 85.6-61 38.4 0 56.2 10.8 56.1 37z"/><path fill="#DDE2E8" d="M824.3 317.3h34.6l27-93c5.6-19.2 18.2-25.7 31.6-25.7 14.4 0 20.2 7.8 14.6 27l-26.7 91.7h34.3l26.8-92c13.2-45.4-7-58.3-31.6-58-12.6 0-27.2 5-39.8 16l2.6-15h-30l-43.4 149zM770.1 271.6c-3 10.3-11.5 16.1-28 16.1-14 0-22.1-4.5-15.1-28.5l1-3.8h81l8.5-29.6c11.7-40.1-1.8-58-41-58-39 0-63.8 20.7-74.7 58l-9.8 34c-11.7 40 1.7 58 41 58 39 0 62.1-14.9 71.2-46.2h-34.1zm-1.3-73.8c19.8 0 20.3 10.4 14.8 29h-47.2c5.2-17.9 12-29 32.4-29zM574.6 168.2L518 362.5h34.6l16.6-56.8c3 9.8 14.6 13.1 26.7 13.1 33.1 0 56-20.4 66.2-55.6l11.2-38.4c12-41.4-3-57.6-32.3-57.6-16.9 0-31.2 6.6-40 17.2l2.1-16.2h-28.5zm22.6 118.5c-14 0-20.5-6.8-15.3-24.7l10-34.1c5-17.2 15-29.9 32.1-29.9 13.6 0 20.4 7.1 14.2 28.6l-10.3 35.1c-5.2 18-15.8 25-30.7 25zM443.3 319.8c39.1 0 63-18 74.7-58l10.5-36c11.7-40.1-1.8-58-41-58-39.1 0-63.3 18.9-74.7 58l-10.5 36c-11.7 40 1.8 58 41 58zm9-30.8c-18.3 0-20-10.6-14.6-29l9.4-32.4c5.4-18.4 13.3-29 31.5-29 18.1 0 19.9 10.6 14.5 29l-9.4 32.4c-5.4 18.4-13.3 29-31.5 29z"/></g></svg>