<?xml version="1.0" standalone="no"?>
<!DOCTYPE svg PUBLIC "-//W3C//DTD SVG 20010904//EN"
 "http://www.w3.org/TR/2001/REC-SVG-20010904/DTD/svg10.dtd">
<svg version="1.0" xmlns="http://www.w3.org/2000/svg"
 width="700.000000pt" height="700.000000pt" viewBox="0 0 700.000000 700.000000"
 preserveAspectRatio="xMidYMid meet">
<metadata>
Created by potrace 1.11, written by Peter Selinger 2001-2013
</metadata>
<g transform="translate(0.000000,700.000000) scale(0.100000,-0.100000)"
fill="#000000" stroke="none">
<path d="M4290 6439 c-84 -42 -154 -115 -196 -203 -29 -60 -34 -81 -34 -141 1
-79 16 -130 53 -178 l25 -33 -134 -439 c-74 -240 -137 -441 -140 -446 -3 -5
-516 -9 -1163 -9 -1289 0 -1269 1 -1409 -65 -131 -62 -209 -163 -256 -331 -14
-49 -247 -863 -517 -1809 -270 -946 -498 -1751 -505 -1790 -42 -202 58 -361
271 -428 120 -38 135 -38 2725 -35 l2525 3 80 23 c180 51 292 163 348 347 9
28 244 853 523 1834 485 1705 507 1787 508 1870 1 75 -3 93 -27 143 -39 79
-96 134 -182 174 -140 65 -125 64 -1372 64 -896 0 -1124 3 -1121 13 3 6 56
180 118 385 l114 373 51 24 c78 38 130 88 167 163 30 60 33 75 33 157 0 76 -4
98 -26 145 -63 132 -180 212 -319 218 -68 3 -81 0 -140 -29z m-1495 -1932
c142 -24 195 -38 276 -69 209 -79 336 -223 374 -421 27 -144 15 -287 -45 -522
-113 -443 -221 -665 -417 -857 -122 -119 -249 -196 -436 -263 -74 -27 -78 -29
-72 -54 3 -14 90 -314 193 -666 l188 -640 -365 -3 c-200 -1 -366 0 -369 2 -2
3 -82 281 -176 618 l-171 613 -116 3 -116 3 -168 -588 c-92 -323 -172 -603
-177 -621 l-9 -32 -314 0 c-173 0 -315 2 -315 4 0 6 977 3438 992 3484 l10 34
572 -5 c458 -3 589 -7 661 -20z m2879 -1 c373 -69 557 -240 581 -539 5 -67 1
-88 -57 -297 l-63 -225 -291 -3 -291 -2 19 77 c26 108 28 225 5 285 -39 101
-150 155 -341 167 -219 13 -410 -17 -516 -82 -98 -60 -179 -163 -232 -296 -33
-82 -451 -1538 -468 -1630 -18 -98 -13 -201 13 -251 28 -56 91 -104 165 -127
84 -26 419 -26 512 0 218 62 348 193 435 440 l28 77 293 0 c162 0 294 -3 294
-7 0 -5 -22 -87 -49 -185 -54 -196 -88 -269 -188 -402 -195 -260 -452 -408
-833 -478 -158 -29 -623 -32 -767 -5 -345 65 -517 204 -569 457 -20 103 -15
266 15 406 21 101 432 1554 482 1704 112 337 281 578 511 727 141 93 360 167
563 192 50 6 104 13 120 15 17 2 145 3 285 1 185 -2 280 -7 344 -19z"/>
<path d="M2011 3914 c-6 -21 -77 -275 -159 -562 l-149 -524 231 5 c254 5 336
17 441 67 179 85 264 220 351 558 64 248 39 367 -88 433 -73 37 -156 49 -390
56 l-226 6 -11 -39z"/>
</g>
</svg>
