<svg xmlns="http://www.w3.org/2000/svg" width="1000" height="1000" viewBox="0 0 1000 1000"><g fill-rule="evenodd" clip-rule="evenodd" fill="#4a7fb5"><path d="M604.5 540.2a300.1 300.1 0 0 0-203.8-165 50.3 50.3 0 0 0-14.5-3l-2.8-.5v.4a50.4 50.4 0 0 0-12.1 99.4l12.1 3a199.3 199.3 0 0 1 145 154.8l.2.4v-.1a50.4 50.4 0 0 0 97.4 0c3.6-29.2-9.4-63.6-21.5-89.4zM1000 627.6a814.2 814.2 0 0 0-1.4-18.3A671.9 671.9 0 0 0 382.6.8a49.6 49.6 0 1 0 0 99.2h3.4v.7a572.6 572.6 0 0 1 514.6 527h.4l.6 2.5a49.6 49.6 0 0 0 96 0l.6-2.5h1.8z"/><circle cx="122.9" cy="877.1" r="121.1"/><path d="M897.3 842.6a54.9 54.9 0 0 1-54.7 54.7H317.3c-4 38.7-19.3 74-42.5 102.7H865.4A136.3 136.3 0 0 0 1000 863.7V838.8a51.4 51.4 0 0 0-94.4-28h-.2v.2c-5.1 8-8.1 17.6-8.1 27.8v3.8zM157.4 102.7a54.9 54.9 0 0 0-54.7 54.7v525.3C64 686.7 28.7 702 0 725.2V134.6A136.3 136.3 0 0 1 136.3 0H161.2a51.4 51.4 0 0 1 28 94.4v.2h-.2c-8 5.2-17.6 8.1-27.8 8.1h-3.8z"/></g></svg>