<svg xmlns="http://www.w3.org/2000/svg" width="1000" height="1000" viewBox="0 0 1000 1000"><path d="M622.3 525.1A305.9 305.9 0 0 0 414.6 357a51.2 51.2 0 0 0 -14.8 -3l-2.8 -.5v.4A51.4 51.4 0 0 0 384.6 455l12.4 3A203.1 203.1 0 0 1 544.8 616l.1.4v-.1a51.4 51.4 0 0 0 99.3 0c3.7 -29.8 -9.6 -64.8 -21.9 -91.2zM999 616.3a659.6 659.6 0 0 0 -1.7 -21.4A654.5 654.5 0 0 0 397 2a51.4 51.4 0 1 0 0 102.8v.4a551.8 551.8 0 0 1 499 511.2h1a51.4 51.4 0 0 0 99.2 0h2.8z" clip-rule="evenodd" fill="#4a7fb5" fill-rule="evenodd"/><path d="M154.8 690.3A155.2 155.2 0 0 0 0 845.2C0 930.4 69.6 1000 154.8 1000c85.3 0 155 -69.6 155 -154.8 0 -85.3 -69.7 -155 -155 -155zm0 90.3a64.7 64.7 0 1 1 -64.6 64.6c0 -35.6 29 -64.6 64.6 -64.6z" fill="#4a7fb5" fill-rule="evenodd"/><path d="M157.4 102.7a54.9 54.9 0 0 0 -54.7 54.7V626.6C63.5 636 28.2 655.6 0 682.5V134.6A136.3 136.3 0 0 1 136.3 0H161.2a51.4 51.4 0 0 1 28 94.4v.2h-.2c-8 5.2 -17.6 8.1 -27.8 8.1h-3.8zM897.3 842.6a54.9 54.9 0 0 1 -54.7 54.7H373.4c-9.4 39.2 -29 74.5 -55.9 102.7H865.4A136.3 136.3 0 0 0 1000 863.7V838.8a51.4 51.4 0 0 0 -94.4 -28h-.2v.2c-5.1 8 -8.1 17.6 -8.1 27.8v3.8z" clip-rule="evenodd" fill="#4a7fb5" fill-rule="evenodd"/></svg>