<svg xmlns="http://www.w3.org/2000/svg" width="4516" height="1000" viewBox="0 0 4516 1000"><path d="M1629.3 811.3c-18.1 0 -26.8 -12.8 -40.3 -29.4l-128.6 -158.4c-7 -8.6 -12 -15.3 -22.8 -15.3H1340c-7.2 0 -10.9 3.7 -10.9 11v159.4c0 10.2 -2.9 18.2 -8.7 24a32.4 32.4 0 0 1 -24 8.7h-38.1c-10.2 0 -18.2 -3 -24 -8.7a32.4 32.4 0 0 1 -8.7 -24V221.4c0 -10.2 3 -18.1 8.7 -24a32.3 32.3 0 0 1 24 -8.7h223.4c29 0 56.3 5.3 81.7 15.8 25.4 10.5 47.4 25 66 43.6 18.4 18.5 33 40.5 43.5 65.9a211.6 211.6 0 0 1 15.8 81.7c0 41.4 -9.8 78.1 -29.6 110a205 205 0 0 1 -75 73c-11.7 6.6 -17.7 19.3 -7.6 31.7L1707.3 772c7.6 9.3 5.4 20.1 1 27.7 -4.3 7.7 -11.9 11.5 -22.8 11.5h-56.2zm600.8 -119.9a29.6 29.6 0 0 1 9.8 24c-.7 8.7 -4 16 -9.8 21.8a343.2 343.2 0 0 1 -81.7 60c-31.2 16.6 -71.5 25 -121 25 -35.5 0 -68.6 -6.4 -99 -19a234 234 0 0 1 -79 -53.5A248.1 248.1 0 0 1 1797 667a287.6 287.6 0 0 1 -19 -106.2V450.2c0 -37.8 6.3 -72.8 19 -105.1s30.2 -60 52.3 -82.8a240.7 240.7 0 0 1 79 -54c30.5 -13 63.6 -19.6 99.2 -19.6a278.7 278.7 0 0 1 118.7 25 216 216 0 0 1 42 24.6c12 9 22 17.6 30 25.6 15.2 15.3 15.2 30.5 0 45.8l-25.1 25c-7.3 7.3 -14.2 11.1 -20.7 11.5 -6.6.3 -14.2 -3.5 -22.9 -11.5a277.6 277.6 0 0 0 -43 -30.5c-19.3 -11.6 -45.6 -17.4 -79 -17.4a134 134 0 0 0 -107.3 47.4 152.7 152.7 0 0 0 -29 52.3c-6.5 20 -9.7 41.2 -9.7 63.7v110.5c0 48.6 12.9 88 38.6 118.2 25.8 30.1 61.6 45.2 107.4 45.2 32 0 59 -6 81.1 -18 22.2 -12 40.2 -24.1 54 -36.4 6.5 -5.9 14 -9.1 22.3 -9.9 8.4 -.7 16.2 2.6 23.4 9.9l21.8 21.7zm499 38.2c22.4 0 43.3 -4.4 62.5 -13A156.5 156.5 0 0 0 2875 630c8 -20.1 12 -41.3 12 -63.9 0 -22.5 -4 -43.7 -12 -63.7a156 156 0 0 0 -83.4 -86.6c-19.2 -8.8 -40 -13 -62.6 -13 -22.5 0 -43.4 4.2 -62.6 13a156 156 0 0 0 -83.4 86.6c-8 20 -12 41.2 -12 63.7 0 22.6 4 43.8 12 63.8a156.5 156.5 0 0 0 83.4 86.6c19.2 8.7 40.1 13 62.6 13zm0 92.6c-35.7 0 -69 -6.7 -99.8 -20.2a261 261 0 0 1 -136.2 -136.2 247 247 0 0 1 -20.1 -99.7 247 247 0 0 1 20.1 -99.7 260.4 260.4 0 0 1 136.2 -136.2 247 247 0 0 1 99.7 -20.1 247 247 0 0 1 99.7 20.1 259.9 259.9 0 0 1 136.2 136.2c13.5 30.9 20.2 64.1 20.2 99.7a247 247 0 0 1 -20.2 99.7A260.6 260.6 0 0 1 2828.7 802a246.8 246.8 0 0 1 -99.7 20.2zm670 -316c0 -27.6 -9 -50 -27.2 -67a92.2 92.2 0 0 0 -65.4 -25.6H3203c-7.3 0 -11 3.6 -11 10.9v283.3c0 7.3 3.7 10.9 11 10.9h103.5c27.6 0 50 -8.6 67 -25.6s25.6 -39.5 25.6 -67V506.1zM3126.7 1000c-10.1 0 -18.2 -3 -24 -8.7a32.4 32.4 0 0 1 -8.7 -24V353.7c0 -10.2 3 -18.2 8.7 -24a32.5 32.5 0 0 1 24 -8.7h179.8c28.3 0 54.3 4.7 78 14.1a181.3 181.3 0 0 1 60.4 38.7c16.7 16.4 29.6 36 38.7 58.8 9 23 13.6 47.5 13.6 73.6V626c0 26.2 -4.7 50.7 -14.2 73.6 -9.4 22.9 -22.3 42.5 -38.7 58.8a178.3 178.3 0 0 1 -58.8 38.7 193.7 193.7 0 0 1 -74.7 14.2H3203c-7.2 0 -11 3.6 -11 10.9v145.1c0 10.1 -2.8 18.2 -8.6 24a32.5 32.5 0 0 1 -24 8.7h-32.7zm844.4 -295.5a28 28 0 0 1 9.3 21.8 39 39 0 0 1 -9.3 22.9c-14.5 18.1 -35.9 34.9 -64.2 50.1 -28.3 15.3 -62.2 22.9 -101.4 22.9 -30.5 0 -58 -5 -82.2 -14.7a181.7 181.7 0 0 1 -103 -101.9c-9.4 -23.2 -14.2 -48 -14.2 -74V502.8c0 -26.1 4.2 -51 12.5 -74.6a174 174 0 0 1 37.1 -61.6 176.7 176.7 0 0 1 60 -41.3 203.2 203.2 0 0 1 81.1 -15.3c30.5 0 57.8 5 81.8 15.3a179 179 0 0 1 100.8 103c9 23.5 13.5 48.4 13.5 74.5v65.4c0 10.2 -2.9 18.2 -8.7 24a32.5 32.5 0 0 1 -24 8.7h-245.1c-7.3 0 -11 3.6 -11 10.9v19.6a103 103 0 0 0 24.6 69.8c16.3 18.8 42 28.3 76.8 28.3 27.6 0 49 -5 64.3 -14.7 15.3 -9.8 26.9 -19.1 34.9 -27.8 8 -8 16 -11.8 24 -11.4 8 .3 15.2 3.8 21.8 10.3l20.6 18.5zM3895 503c0 -27.6 -7.6 -51.2 -23 -70.8 -15.2 -19.6 -40.2 -29.4 -75 -29.4 -34.2 0 -58.2 9.8 -72 29.4a119.8 119.8 0 0 0 -20.7 70.8v5.5c0 7.3 3.6 10.9 10.9 10.9H3884c7.3 0 10.9 -3.6 10.9 -11V503zm555.7 308.4c-10.2 0 -18.2 -3 -24 -8.7a32.5 32.5 0 0 1 -8.7 -24V506.2c0 -27.6 -8.6 -51.7 -25.6 -72.5 -17.1 -20.6 -43 -31 -78 -31 -34.8 0 -60.8 10.4 -77.8 31a110.5 110.5 0 0 0 -25.6 72.5v272.4c0 10.2 -3 18.2 -8.7 24a32.5 32.5 0 0 1 -24 8.7h-32.7c-10.2 0 -18.2 -3 -24 -8.7a32.3 32.3 0 0 1 -8.7 -24V506.2a196 196 0 0 1 14.7 -75.2c9.8 -24 23.4 -44.8 40.9 -62.6 17.4 -17.8 38.4 -32 63.2 -42.5a209.4 209.4 0 0 1 82.8 -15.8c30.5 0 58 5.3 82.8 15.8a195 195 0 0 1 63.2 42.5 197 197 0 0 1 55.5 137.9v272.3c0 10.2 -2.9 18.2 -8.7 24a32.4 32.4 0 0 1 -24 8.7h-32.6zM1475.2 510.2c14.6 0 28.5 -2.8 42 -8.2a106.5 106.5 0 0 0 35.4 -23.4 117.2 117.2 0 0 0 24.5 -128 107.5 107.5 0 0 0 -24.5 -34.4c-10.2 -9.4 -22 -16.7 -35.4 -21.8a117.2 117.2 0 0 0 -42 -7.6h-134c-7.2 0 -10.9 3.6 -10.9 10.9v201.5c0 7.3 3.6 11 11 11h134z" clip-rule="evenodd" fill="#4a7fb5" fill-rule="evenodd"/><path d="M566.4 478a278.4 278.4 0 0 0 -189 -153 46.6 46.6 0 0 0 -13.5 -2.8l-2.6 -.5v.4a46.8 46.8 0 0 0 -11.2 92.1l11.2 2.8A184.9 184.9 0 0 1 496 560.6v.4 -.1a46.8 46.8 0 0 0 90.5 0c3.3 -27 -8.8 -59 -20 -83zM909.2 560.9a599.8 599.8 0 0 0 -1.4 -19.4A595.7 595.7 0 0 0 361.3 1.8a46.8 46.8 0 1 0 0 93.5v.4a502.2 502.2 0 0 1 454.3 465.2h.8a46.8 46.8 0 0 0 90.4 0h2.4z" clip-rule="evenodd" fill="#4a7fb5" fill-rule="evenodd"/><path d="M141 628.3c-77.7 0 -141 63.3 -141 141 0 77.5 63.3 140.9 141 140.9 77.6 0 141 -63.4 141 -141s-63.4 -141 -141 -141zm0 82.1a59 59 0 0 1 58.8 58.8 59 59 0 0 1 -117.6 0 58.9 58.9 0 0 1 58.8 -58.8z" fill="#4a7fb5" fill-rule="evenodd"/><path d="M143.3 93.5a50 50 0 0 0 -49.8 49.7v427.1A204 204 0 0 0 0 621.2V122.5A124 124 0 0 1 124.2 0H146.7a46.8 46.8 0 0 1 25.5 86v.1h-.2c-7.3 4.7 -16 7.4 -25.3 7.4h-3.4zM816.7 767a50 50 0 0 1 -49.7 49.6H339.9a204 204 0 0 1 -50.9 93.6h498.7A124 124 0 0 0 910.1 786v-22.7a46.8 46.8 0 0 0 -86 -25.4h-.1v.2c-4.7 7.3 -7.4 16 -7.4 25.2v3.5z" clip-rule="evenodd" fill="#4a7fb5" fill-rule="evenodd"/></svg>